<mxfile host="app.diagrams.net" modified="2023-09-19T03:05:17.285Z" agent="Mozilla/5.0 (Windows NT 10.0; Win64; x64) AppleWebKit/537.36 (KHTML, like Gecko) Chrome/116.0.0.0 Safari/537.36 OPR/102.0.0.0" etag="HLEHPQX5MvWMhJH6q4a_" version="21.7.5" type="device" pages="2">
  <diagram name="Page-1" id="UuyQf_X2ssFcp2gz4pR6">
    <mxGraphModel dx="2685" dy="985" grid="1" gridSize="10" guides="1" tooltips="1" connect="1" arrows="1" fold="1" page="1" pageScale="1" pageWidth="850" pageHeight="1100" math="0" shadow="0">
      <root>
        <mxCell id="0" />
        <mxCell id="1" parent="0" />
        <mxCell id="nq9YgbKy66_ZBbjp5Jeb-1" value="User" style="shape=table;startSize=30;container=1;collapsible=1;childLayout=tableLayout;fixedRows=1;rowLines=0;fontStyle=1;align=center;resizeLast=1;html=1;" parent="1" vertex="1">
          <mxGeometry x="360" y="280" width="180" height="180" as="geometry" />
        </mxCell>
        <mxCell id="nq9YgbKy66_ZBbjp5Jeb-2" value="" style="shape=tableRow;horizontal=0;startSize=0;swimlaneHead=0;swimlaneBody=0;fillColor=none;collapsible=0;dropTarget=0;points=[[0,0.5],[1,0.5]];portConstraint=eastwest;top=0;left=0;right=0;bottom=1;" parent="nq9YgbKy66_ZBbjp5Jeb-1" vertex="1">
          <mxGeometry y="30" width="180" height="30" as="geometry" />
        </mxCell>
        <mxCell id="nq9YgbKy66_ZBbjp5Jeb-3" value="PK" style="shape=partialRectangle;connectable=0;fillColor=none;top=0;left=0;bottom=0;right=0;fontStyle=1;overflow=hidden;whiteSpace=wrap;html=1;" parent="nq9YgbKy66_ZBbjp5Jeb-2" vertex="1">
          <mxGeometry width="30" height="30" as="geometry">
            <mxRectangle width="30" height="30" as="alternateBounds" />
          </mxGeometry>
        </mxCell>
        <mxCell id="nq9YgbKy66_ZBbjp5Jeb-4" value="userId" style="shape=partialRectangle;connectable=0;fillColor=none;top=0;left=0;bottom=0;right=0;align=left;spacingLeft=6;fontStyle=5;overflow=hidden;whiteSpace=wrap;html=1;" parent="nq9YgbKy66_ZBbjp5Jeb-2" vertex="1">
          <mxGeometry x="30" width="150" height="30" as="geometry">
            <mxRectangle width="150" height="30" as="alternateBounds" />
          </mxGeometry>
        </mxCell>
        <mxCell id="nq9YgbKy66_ZBbjp5Jeb-5" value="" style="shape=tableRow;horizontal=0;startSize=0;swimlaneHead=0;swimlaneBody=0;fillColor=none;collapsible=0;dropTarget=0;points=[[0,0.5],[1,0.5]];portConstraint=eastwest;top=0;left=0;right=0;bottom=0;" parent="nq9YgbKy66_ZBbjp5Jeb-1" vertex="1">
          <mxGeometry y="60" width="180" height="30" as="geometry" />
        </mxCell>
        <mxCell id="nq9YgbKy66_ZBbjp5Jeb-6" value="" style="shape=partialRectangle;connectable=0;fillColor=none;top=0;left=0;bottom=0;right=0;editable=1;overflow=hidden;whiteSpace=wrap;html=1;" parent="nq9YgbKy66_ZBbjp5Jeb-5" vertex="1">
          <mxGeometry width="30" height="30" as="geometry">
            <mxRectangle width="30" height="30" as="alternateBounds" />
          </mxGeometry>
        </mxCell>
        <mxCell id="nq9YgbKy66_ZBbjp5Jeb-7" value="userName" style="shape=partialRectangle;connectable=0;fillColor=none;top=0;left=0;bottom=0;right=0;align=left;spacingLeft=6;overflow=hidden;whiteSpace=wrap;html=1;" parent="nq9YgbKy66_ZBbjp5Jeb-5" vertex="1">
          <mxGeometry x="30" width="150" height="30" as="geometry">
            <mxRectangle width="150" height="30" as="alternateBounds" />
          </mxGeometry>
        </mxCell>
        <mxCell id="nq9YgbKy66_ZBbjp5Jeb-8" value="" style="shape=tableRow;horizontal=0;startSize=0;swimlaneHead=0;swimlaneBody=0;fillColor=none;collapsible=0;dropTarget=0;points=[[0,0.5],[1,0.5]];portConstraint=eastwest;top=0;left=0;right=0;bottom=0;" parent="nq9YgbKy66_ZBbjp5Jeb-1" vertex="1">
          <mxGeometry y="90" width="180" height="30" as="geometry" />
        </mxCell>
        <mxCell id="nq9YgbKy66_ZBbjp5Jeb-9" value="" style="shape=partialRectangle;connectable=0;fillColor=none;top=0;left=0;bottom=0;right=0;editable=1;overflow=hidden;whiteSpace=wrap;html=1;" parent="nq9YgbKy66_ZBbjp5Jeb-8" vertex="1">
          <mxGeometry width="30" height="30" as="geometry">
            <mxRectangle width="30" height="30" as="alternateBounds" />
          </mxGeometry>
        </mxCell>
        <mxCell id="nq9YgbKy66_ZBbjp5Jeb-10" value="userPassword" style="shape=partialRectangle;connectable=0;fillColor=none;top=0;left=0;bottom=0;right=0;align=left;spacingLeft=6;overflow=hidden;whiteSpace=wrap;html=1;" parent="nq9YgbKy66_ZBbjp5Jeb-8" vertex="1">
          <mxGeometry x="30" width="150" height="30" as="geometry">
            <mxRectangle width="150" height="30" as="alternateBounds" />
          </mxGeometry>
        </mxCell>
        <mxCell id="nq9YgbKy66_ZBbjp5Jeb-114" value="" style="shape=tableRow;horizontal=0;startSize=0;swimlaneHead=0;swimlaneBody=0;fillColor=none;collapsible=0;dropTarget=0;points=[[0,0.5],[1,0.5]];portConstraint=eastwest;top=0;left=0;right=0;bottom=0;" parent="nq9YgbKy66_ZBbjp5Jeb-1" vertex="1">
          <mxGeometry y="120" width="180" height="30" as="geometry" />
        </mxCell>
        <mxCell id="nq9YgbKy66_ZBbjp5Jeb-115" value="" style="shape=partialRectangle;connectable=0;fillColor=none;top=0;left=0;bottom=0;right=0;editable=1;overflow=hidden;" parent="nq9YgbKy66_ZBbjp5Jeb-114" vertex="1">
          <mxGeometry width="30" height="30" as="geometry">
            <mxRectangle width="30" height="30" as="alternateBounds" />
          </mxGeometry>
        </mxCell>
        <mxCell id="nq9YgbKy66_ZBbjp5Jeb-116" value="userOrigin: Location" style="shape=partialRectangle;connectable=0;fillColor=none;top=0;left=0;bottom=0;right=0;align=left;spacingLeft=6;overflow=hidden;" parent="nq9YgbKy66_ZBbjp5Jeb-114" vertex="1">
          <mxGeometry x="30" width="150" height="30" as="geometry">
            <mxRectangle width="150" height="30" as="alternateBounds" />
          </mxGeometry>
        </mxCell>
        <mxCell id="nq9YgbKy66_ZBbjp5Jeb-133" value="" style="shape=tableRow;horizontal=0;startSize=0;swimlaneHead=0;swimlaneBody=0;fillColor=none;collapsible=0;dropTarget=0;points=[[0,0.5],[1,0.5]];portConstraint=eastwest;top=0;left=0;right=0;bottom=0;" parent="nq9YgbKy66_ZBbjp5Jeb-1" vertex="1">
          <mxGeometry y="150" width="180" height="30" as="geometry" />
        </mxCell>
        <mxCell id="nq9YgbKy66_ZBbjp5Jeb-134" value="" style="shape=partialRectangle;connectable=0;fillColor=none;top=0;left=0;bottom=0;right=0;editable=1;overflow=hidden;" parent="nq9YgbKy66_ZBbjp5Jeb-133" vertex="1">
          <mxGeometry width="30" height="30" as="geometry">
            <mxRectangle width="30" height="30" as="alternateBounds" />
          </mxGeometry>
        </mxCell>
        <mxCell id="nq9YgbKy66_ZBbjp5Jeb-135" value="routeHistory: Routes[]" style="shape=partialRectangle;connectable=0;fillColor=none;top=0;left=0;bottom=0;right=0;align=left;spacingLeft=6;overflow=hidden;" parent="nq9YgbKy66_ZBbjp5Jeb-133" vertex="1">
          <mxGeometry x="30" width="150" height="30" as="geometry">
            <mxRectangle width="150" height="30" as="alternateBounds" />
          </mxGeometry>
        </mxCell>
        <mxCell id="nq9YgbKy66_ZBbjp5Jeb-152" style="edgeStyle=orthogonalEdgeStyle;rounded=0;orthogonalLoop=1;jettySize=auto;html=1;endArrow=none;endFill=0;" parent="1" source="nq9YgbKy66_ZBbjp5Jeb-28" target="nq9YgbKy66_ZBbjp5Jeb-38" edge="1">
          <mxGeometry relative="1" as="geometry" />
        </mxCell>
        <mxCell id="nq9YgbKy66_ZBbjp5Jeb-28" value="Passenger" style="shape=table;startSize=30;container=1;collapsible=1;childLayout=tableLayout;fixedRows=1;rowLines=0;fontStyle=1;align=center;resizeLast=1;html=1;" parent="1" vertex="1">
          <mxGeometry x="90" y="425" width="230" height="240" as="geometry" />
        </mxCell>
        <mxCell id="nq9YgbKy66_ZBbjp5Jeb-29" value="" style="shape=tableRow;horizontal=0;startSize=0;swimlaneHead=0;swimlaneBody=0;fillColor=none;collapsible=0;dropTarget=0;points=[[0,0.5],[1,0.5]];portConstraint=eastwest;top=0;left=0;right=0;bottom=1;" parent="nq9YgbKy66_ZBbjp5Jeb-28" vertex="1">
          <mxGeometry y="30" width="230" height="30" as="geometry" />
        </mxCell>
        <mxCell id="nq9YgbKy66_ZBbjp5Jeb-30" value="PK" style="shape=partialRectangle;connectable=0;fillColor=none;top=0;left=0;bottom=0;right=0;fontStyle=1;overflow=hidden;whiteSpace=wrap;html=1;" parent="nq9YgbKy66_ZBbjp5Jeb-29" vertex="1">
          <mxGeometry width="40" height="30" as="geometry">
            <mxRectangle width="40" height="30" as="alternateBounds" />
          </mxGeometry>
        </mxCell>
        <mxCell id="nq9YgbKy66_ZBbjp5Jeb-31" value="passengerId" style="shape=partialRectangle;connectable=0;fillColor=none;top=0;left=0;bottom=0;right=0;align=left;spacingLeft=6;fontStyle=5;overflow=hidden;whiteSpace=wrap;html=1;" parent="nq9YgbKy66_ZBbjp5Jeb-29" vertex="1">
          <mxGeometry x="40" width="190" height="30" as="geometry">
            <mxRectangle width="190" height="30" as="alternateBounds" />
          </mxGeometry>
        </mxCell>
        <mxCell id="nq9YgbKy66_ZBbjp5Jeb-156" value="" style="shape=tableRow;horizontal=0;startSize=0;swimlaneHead=0;swimlaneBody=0;fillColor=none;collapsible=0;dropTarget=0;points=[[0,0.5],[1,0.5]];portConstraint=eastwest;top=0;left=0;right=0;bottom=0;" parent="nq9YgbKy66_ZBbjp5Jeb-28" vertex="1">
          <mxGeometry y="60" width="230" height="30" as="geometry" />
        </mxCell>
        <mxCell id="nq9YgbKy66_ZBbjp5Jeb-157" value="FK" style="shape=partialRectangle;connectable=0;fillColor=none;top=0;left=0;bottom=0;right=0;fontStyle=0;overflow=hidden;whiteSpace=wrap;html=1;" parent="nq9YgbKy66_ZBbjp5Jeb-156" vertex="1">
          <mxGeometry width="40" height="30" as="geometry">
            <mxRectangle width="40" height="30" as="alternateBounds" />
          </mxGeometry>
        </mxCell>
        <mxCell id="nq9YgbKy66_ZBbjp5Jeb-158" value="userId" style="shape=partialRectangle;connectable=0;fillColor=none;top=0;left=0;bottom=0;right=0;align=left;spacingLeft=6;fontStyle=0;overflow=hidden;whiteSpace=wrap;html=1;" parent="nq9YgbKy66_ZBbjp5Jeb-156" vertex="1">
          <mxGeometry x="40" width="190" height="30" as="geometry">
            <mxRectangle width="190" height="30" as="alternateBounds" />
          </mxGeometry>
        </mxCell>
        <mxCell id="nq9YgbKy66_ZBbjp5Jeb-32" value="" style="shape=tableRow;horizontal=0;startSize=0;swimlaneHead=0;swimlaneBody=0;fillColor=none;collapsible=0;dropTarget=0;points=[[0,0.5],[1,0.5]];portConstraint=eastwest;top=0;left=0;right=0;bottom=0;" parent="nq9YgbKy66_ZBbjp5Jeb-28" vertex="1">
          <mxGeometry y="90" width="230" height="30" as="geometry" />
        </mxCell>
        <mxCell id="nq9YgbKy66_ZBbjp5Jeb-33" value="" style="shape=partialRectangle;connectable=0;fillColor=none;top=0;left=0;bottom=0;right=0;editable=1;overflow=hidden;whiteSpace=wrap;html=1;" parent="nq9YgbKy66_ZBbjp5Jeb-32" vertex="1">
          <mxGeometry width="40" height="30" as="geometry">
            <mxRectangle width="40" height="30" as="alternateBounds" />
          </mxGeometry>
        </mxCell>
        <mxCell id="nq9YgbKy66_ZBbjp5Jeb-34" value="name" style="shape=partialRectangle;connectable=0;fillColor=none;top=0;left=0;bottom=0;right=0;align=left;spacingLeft=6;overflow=hidden;whiteSpace=wrap;html=1;" parent="nq9YgbKy66_ZBbjp5Jeb-32" vertex="1">
          <mxGeometry x="40" width="190" height="30" as="geometry">
            <mxRectangle width="190" height="30" as="alternateBounds" />
          </mxGeometry>
        </mxCell>
        <mxCell id="nq9YgbKy66_ZBbjp5Jeb-35" value="" style="shape=tableRow;horizontal=0;startSize=0;swimlaneHead=0;swimlaneBody=0;fillColor=none;collapsible=0;dropTarget=0;points=[[0,0.5],[1,0.5]];portConstraint=eastwest;top=0;left=0;right=0;bottom=0;" parent="nq9YgbKy66_ZBbjp5Jeb-28" vertex="1">
          <mxGeometry y="120" width="230" height="30" as="geometry" />
        </mxCell>
        <mxCell id="nq9YgbKy66_ZBbjp5Jeb-36" value="" style="shape=partialRectangle;connectable=0;fillColor=none;top=0;left=0;bottom=0;right=0;editable=1;overflow=hidden;whiteSpace=wrap;html=1;" parent="nq9YgbKy66_ZBbjp5Jeb-35" vertex="1">
          <mxGeometry width="40" height="30" as="geometry">
            <mxRectangle width="40" height="30" as="alternateBounds" />
          </mxGeometry>
        </mxCell>
        <mxCell id="nq9YgbKy66_ZBbjp5Jeb-37" value="origin:&amp;nbsp;Location" style="shape=partialRectangle;connectable=0;fillColor=none;top=0;left=0;bottom=0;right=0;align=left;spacingLeft=6;overflow=hidden;whiteSpace=wrap;html=1;" parent="nq9YgbKy66_ZBbjp5Jeb-35" vertex="1">
          <mxGeometry x="40" width="190" height="30" as="geometry">
            <mxRectangle width="190" height="30" as="alternateBounds" />
          </mxGeometry>
        </mxCell>
        <mxCell id="nq9YgbKy66_ZBbjp5Jeb-69" value="" style="shape=tableRow;horizontal=0;startSize=0;swimlaneHead=0;swimlaneBody=0;fillColor=none;collapsible=0;dropTarget=0;points=[[0,0.5],[1,0.5]];portConstraint=eastwest;top=0;left=0;right=0;bottom=0;" parent="nq9YgbKy66_ZBbjp5Jeb-28" vertex="1">
          <mxGeometry y="150" width="230" height="30" as="geometry" />
        </mxCell>
        <mxCell id="nq9YgbKy66_ZBbjp5Jeb-70" value="" style="shape=partialRectangle;connectable=0;fillColor=none;top=0;left=0;bottom=0;right=0;editable=1;overflow=hidden;" parent="nq9YgbKy66_ZBbjp5Jeb-69" vertex="1">
          <mxGeometry width="40" height="30" as="geometry">
            <mxRectangle width="40" height="30" as="alternateBounds" />
          </mxGeometry>
        </mxCell>
        <mxCell id="nq9YgbKy66_ZBbjp5Jeb-71" value="destinations: Location[]" style="shape=partialRectangle;connectable=0;fillColor=none;top=0;left=0;bottom=0;right=0;align=left;spacingLeft=6;overflow=hidden;" parent="nq9YgbKy66_ZBbjp5Jeb-69" vertex="1">
          <mxGeometry x="40" width="190" height="30" as="geometry">
            <mxRectangle width="190" height="30" as="alternateBounds" />
          </mxGeometry>
        </mxCell>
        <mxCell id="nq9YgbKy66_ZBbjp5Jeb-72" value="" style="shape=tableRow;horizontal=0;startSize=0;swimlaneHead=0;swimlaneBody=0;fillColor=none;collapsible=0;dropTarget=0;points=[[0,0.5],[1,0.5]];portConstraint=eastwest;top=0;left=0;right=0;bottom=0;" parent="nq9YgbKy66_ZBbjp5Jeb-28" vertex="1">
          <mxGeometry y="180" width="230" height="30" as="geometry" />
        </mxCell>
        <mxCell id="nq9YgbKy66_ZBbjp5Jeb-73" value="" style="shape=partialRectangle;connectable=0;fillColor=none;top=0;left=0;bottom=0;right=0;editable=1;overflow=hidden;" parent="nq9YgbKy66_ZBbjp5Jeb-72" vertex="1">
          <mxGeometry width="40" height="30" as="geometry">
            <mxRectangle width="40" height="30" as="alternateBounds" />
          </mxGeometry>
        </mxCell>
        <mxCell id="nq9YgbKy66_ZBbjp5Jeb-74" value="deadline: Date / int" style="shape=partialRectangle;connectable=0;fillColor=none;top=0;left=0;bottom=0;right=0;align=left;spacingLeft=6;overflow=hidden;" parent="nq9YgbKy66_ZBbjp5Jeb-72" vertex="1">
          <mxGeometry x="40" width="190" height="30" as="geometry">
            <mxRectangle width="190" height="30" as="alternateBounds" />
          </mxGeometry>
        </mxCell>
        <mxCell id="nq9YgbKy66_ZBbjp5Jeb-92" value="" style="shape=tableRow;horizontal=0;startSize=0;swimlaneHead=0;swimlaneBody=0;fillColor=none;collapsible=0;dropTarget=0;points=[[0,0.5],[1,0.5]];portConstraint=eastwest;top=0;left=0;right=0;bottom=0;" parent="nq9YgbKy66_ZBbjp5Jeb-28" vertex="1">
          <mxGeometry y="210" width="230" height="30" as="geometry" />
        </mxCell>
        <mxCell id="nq9YgbKy66_ZBbjp5Jeb-93" value="" style="shape=partialRectangle;connectable=0;fillColor=none;top=0;left=0;bottom=0;right=0;editable=1;overflow=hidden;" parent="nq9YgbKy66_ZBbjp5Jeb-92" vertex="1">
          <mxGeometry width="40" height="30" as="geometry">
            <mxRectangle width="40" height="30" as="alternateBounds" />
          </mxGeometry>
        </mxCell>
        <mxCell id="nq9YgbKy66_ZBbjp5Jeb-94" value="notes" style="shape=partialRectangle;connectable=0;fillColor=none;top=0;left=0;bottom=0;right=0;align=left;spacingLeft=6;overflow=hidden;" parent="nq9YgbKy66_ZBbjp5Jeb-92" vertex="1">
          <mxGeometry x="40" width="190" height="30" as="geometry">
            <mxRectangle width="190" height="30" as="alternateBounds" />
          </mxGeometry>
        </mxCell>
        <mxCell id="nq9YgbKy66_ZBbjp5Jeb-131" style="edgeStyle=orthogonalEdgeStyle;rounded=0;orthogonalLoop=1;jettySize=auto;html=1;endArrow=none;endFill=0;" parent="1" source="nq9YgbKy66_ZBbjp5Jeb-38" target="nq9YgbKy66_ZBbjp5Jeb-1" edge="1">
          <mxGeometry relative="1" as="geometry">
            <Array as="points">
              <mxPoint x="450" y="250" />
            </Array>
          </mxGeometry>
        </mxCell>
        <mxCell id="nq9YgbKy66_ZBbjp5Jeb-38" value="Routes" style="shape=table;startSize=30;container=1;collapsible=1;childLayout=tableLayout;fixedRows=1;rowLines=0;fontStyle=1;align=center;resizeLast=1;html=1;" parent="1" vertex="1">
          <mxGeometry x="90" y="140" width="230" height="210" as="geometry" />
        </mxCell>
        <mxCell id="nq9YgbKy66_ZBbjp5Jeb-39" value="" style="shape=tableRow;horizontal=0;startSize=0;swimlaneHead=0;swimlaneBody=0;fillColor=none;collapsible=0;dropTarget=0;points=[[0,0.5],[1,0.5]];portConstraint=eastwest;top=0;left=0;right=0;bottom=1;" parent="nq9YgbKy66_ZBbjp5Jeb-38" vertex="1">
          <mxGeometry y="30" width="230" height="30" as="geometry" />
        </mxCell>
        <mxCell id="nq9YgbKy66_ZBbjp5Jeb-40" value="PK" style="shape=partialRectangle;connectable=0;fillColor=none;top=0;left=0;bottom=0;right=0;fontStyle=1;overflow=hidden;whiteSpace=wrap;html=1;" parent="nq9YgbKy66_ZBbjp5Jeb-39" vertex="1">
          <mxGeometry width="50" height="30" as="geometry">
            <mxRectangle width="50" height="30" as="alternateBounds" />
          </mxGeometry>
        </mxCell>
        <mxCell id="nq9YgbKy66_ZBbjp5Jeb-41" value="routeId" style="shape=partialRectangle;connectable=0;fillColor=none;top=0;left=0;bottom=0;right=0;align=left;spacingLeft=6;fontStyle=5;overflow=hidden;whiteSpace=wrap;html=1;" parent="nq9YgbKy66_ZBbjp5Jeb-39" vertex="1">
          <mxGeometry x="50" width="180" height="30" as="geometry">
            <mxRectangle width="180" height="30" as="alternateBounds" />
          </mxGeometry>
        </mxCell>
        <mxCell id="nq9YgbKy66_ZBbjp5Jeb-160" value="" style="shape=tableRow;horizontal=0;startSize=0;swimlaneHead=0;swimlaneBody=0;fillColor=none;collapsible=0;dropTarget=0;points=[[0,0.5],[1,0.5]];portConstraint=eastwest;top=0;left=0;right=0;bottom=0;" parent="nq9YgbKy66_ZBbjp5Jeb-38" vertex="1">
          <mxGeometry y="60" width="230" height="30" as="geometry" />
        </mxCell>
        <mxCell id="nq9YgbKy66_ZBbjp5Jeb-161" value="FK" style="shape=partialRectangle;connectable=0;fillColor=none;top=0;left=0;bottom=0;right=0;fontStyle=0;overflow=hidden;whiteSpace=wrap;html=1;" parent="nq9YgbKy66_ZBbjp5Jeb-160" vertex="1">
          <mxGeometry width="50" height="30" as="geometry">
            <mxRectangle width="50" height="30" as="alternateBounds" />
          </mxGeometry>
        </mxCell>
        <mxCell id="nq9YgbKy66_ZBbjp5Jeb-162" value="userId" style="shape=partialRectangle;connectable=0;fillColor=none;top=0;left=0;bottom=0;right=0;align=left;spacingLeft=6;fontStyle=0;overflow=hidden;whiteSpace=wrap;html=1;" parent="nq9YgbKy66_ZBbjp5Jeb-160" vertex="1">
          <mxGeometry x="50" width="180" height="30" as="geometry">
            <mxRectangle width="180" height="30" as="alternateBounds" />
          </mxGeometry>
        </mxCell>
        <mxCell id="nq9YgbKy66_ZBbjp5Jeb-42" value="" style="shape=tableRow;horizontal=0;startSize=0;swimlaneHead=0;swimlaneBody=0;fillColor=none;collapsible=0;dropTarget=0;points=[[0,0.5],[1,0.5]];portConstraint=eastwest;top=0;left=0;right=0;bottom=0;" parent="nq9YgbKy66_ZBbjp5Jeb-38" vertex="1">
          <mxGeometry y="90" width="230" height="30" as="geometry" />
        </mxCell>
        <mxCell id="nq9YgbKy66_ZBbjp5Jeb-43" value="" style="shape=partialRectangle;connectable=0;fillColor=none;top=0;left=0;bottom=0;right=0;editable=1;overflow=hidden;whiteSpace=wrap;html=1;" parent="nq9YgbKy66_ZBbjp5Jeb-42" vertex="1">
          <mxGeometry width="50" height="30" as="geometry">
            <mxRectangle width="50" height="30" as="alternateBounds" />
          </mxGeometry>
        </mxCell>
        <mxCell id="nq9YgbKy66_ZBbjp5Jeb-44" value="name" style="shape=partialRectangle;connectable=0;fillColor=none;top=0;left=0;bottom=0;right=0;align=left;spacingLeft=6;overflow=hidden;whiteSpace=wrap;html=1;" parent="nq9YgbKy66_ZBbjp5Jeb-42" vertex="1">
          <mxGeometry x="50" width="180" height="30" as="geometry">
            <mxRectangle width="180" height="30" as="alternateBounds" />
          </mxGeometry>
        </mxCell>
        <mxCell id="nq9YgbKy66_ZBbjp5Jeb-45" value="" style="shape=tableRow;horizontal=0;startSize=0;swimlaneHead=0;swimlaneBody=0;fillColor=none;collapsible=0;dropTarget=0;points=[[0,0.5],[1,0.5]];portConstraint=eastwest;top=0;left=0;right=0;bottom=0;" parent="nq9YgbKy66_ZBbjp5Jeb-38" vertex="1">
          <mxGeometry y="120" width="230" height="30" as="geometry" />
        </mxCell>
        <mxCell id="nq9YgbKy66_ZBbjp5Jeb-46" value="" style="shape=partialRectangle;connectable=0;fillColor=none;top=0;left=0;bottom=0;right=0;editable=1;overflow=hidden;whiteSpace=wrap;html=1;" parent="nq9YgbKy66_ZBbjp5Jeb-45" vertex="1">
          <mxGeometry width="50" height="30" as="geometry">
            <mxRectangle width="50" height="30" as="alternateBounds" />
          </mxGeometry>
        </mxCell>
        <mxCell id="nq9YgbKy66_ZBbjp5Jeb-47" value="passengers: Passenger[]" style="shape=partialRectangle;connectable=0;fillColor=none;top=0;left=0;bottom=0;right=0;align=left;spacingLeft=6;overflow=hidden;whiteSpace=wrap;html=1;" parent="nq9YgbKy66_ZBbjp5Jeb-45" vertex="1">
          <mxGeometry x="50" width="180" height="30" as="geometry">
            <mxRectangle width="180" height="30" as="alternateBounds" />
          </mxGeometry>
        </mxCell>
        <mxCell id="nq9YgbKy66_ZBbjp5Jeb-126" value="" style="shape=tableRow;horizontal=0;startSize=0;swimlaneHead=0;swimlaneBody=0;fillColor=none;collapsible=0;dropTarget=0;points=[[0,0.5],[1,0.5]];portConstraint=eastwest;top=0;left=0;right=0;bottom=0;" parent="nq9YgbKy66_ZBbjp5Jeb-38" vertex="1">
          <mxGeometry y="150" width="230" height="30" as="geometry" />
        </mxCell>
        <mxCell id="nq9YgbKy66_ZBbjp5Jeb-127" value="" style="shape=partialRectangle;connectable=0;fillColor=none;top=0;left=0;bottom=0;right=0;editable=1;overflow=hidden;" parent="nq9YgbKy66_ZBbjp5Jeb-126" vertex="1">
          <mxGeometry width="50" height="30" as="geometry">
            <mxRectangle width="50" height="30" as="alternateBounds" />
          </mxGeometry>
        </mxCell>
        <mxCell id="nq9YgbKy66_ZBbjp5Jeb-128" value="otherDestinations: Location[]" style="shape=partialRectangle;connectable=0;fillColor=none;top=0;left=0;bottom=0;right=0;align=left;spacingLeft=6;overflow=hidden;" parent="nq9YgbKy66_ZBbjp5Jeb-126" vertex="1">
          <mxGeometry x="50" width="180" height="30" as="geometry">
            <mxRectangle width="180" height="30" as="alternateBounds" />
          </mxGeometry>
        </mxCell>
        <mxCell id="nq9YgbKy66_ZBbjp5Jeb-123" value="" style="shape=tableRow;horizontal=0;startSize=0;swimlaneHead=0;swimlaneBody=0;fillColor=none;collapsible=0;dropTarget=0;points=[[0,0.5],[1,0.5]];portConstraint=eastwest;top=0;left=0;right=0;bottom=0;" parent="nq9YgbKy66_ZBbjp5Jeb-38" vertex="1">
          <mxGeometry y="180" width="230" height="30" as="geometry" />
        </mxCell>
        <mxCell id="nq9YgbKy66_ZBbjp5Jeb-124" value="" style="shape=partialRectangle;connectable=0;fillColor=none;top=0;left=0;bottom=0;right=0;editable=1;overflow=hidden;" parent="nq9YgbKy66_ZBbjp5Jeb-123" vertex="1">
          <mxGeometry width="50" height="30" as="geometry">
            <mxRectangle width="50" height="30" as="alternateBounds" />
          </mxGeometry>
        </mxCell>
        <mxCell id="nq9YgbKy66_ZBbjp5Jeb-125" value="notes" style="shape=partialRectangle;connectable=0;fillColor=none;top=0;left=0;bottom=0;right=0;align=left;spacingLeft=6;overflow=hidden;" parent="nq9YgbKy66_ZBbjp5Jeb-123" vertex="1">
          <mxGeometry x="50" width="180" height="30" as="geometry">
            <mxRectangle width="180" height="30" as="alternateBounds" />
          </mxGeometry>
        </mxCell>
        <mxCell id="nq9YgbKy66_ZBbjp5Jeb-95" value="Location" style="shape=table;startSize=30;container=1;collapsible=1;childLayout=tableLayout;fixedRows=1;rowLines=0;fontStyle=1;align=center;resizeLast=1;html=1;" parent="1" vertex="1">
          <mxGeometry x="600" y="280" width="180" height="180" as="geometry" />
        </mxCell>
        <mxCell id="nq9YgbKy66_ZBbjp5Jeb-96" value="" style="shape=tableRow;horizontal=0;startSize=0;swimlaneHead=0;swimlaneBody=0;fillColor=none;collapsible=0;dropTarget=0;points=[[0,0.5],[1,0.5]];portConstraint=eastwest;top=0;left=0;right=0;bottom=1;" parent="nq9YgbKy66_ZBbjp5Jeb-95" vertex="1">
          <mxGeometry y="30" width="180" height="30" as="geometry" />
        </mxCell>
        <mxCell id="nq9YgbKy66_ZBbjp5Jeb-97" value="PK" style="shape=partialRectangle;connectable=0;fillColor=none;top=0;left=0;bottom=0;right=0;fontStyle=1;overflow=hidden;whiteSpace=wrap;html=1;" parent="nq9YgbKy66_ZBbjp5Jeb-96" vertex="1">
          <mxGeometry width="40" height="30" as="geometry">
            <mxRectangle width="40" height="30" as="alternateBounds" />
          </mxGeometry>
        </mxCell>
        <mxCell id="nq9YgbKy66_ZBbjp5Jeb-98" value="locationId" style="shape=partialRectangle;connectable=0;fillColor=none;top=0;left=0;bottom=0;right=0;align=left;spacingLeft=6;fontStyle=5;overflow=hidden;whiteSpace=wrap;html=1;" parent="nq9YgbKy66_ZBbjp5Jeb-96" vertex="1">
          <mxGeometry x="40" width="140" height="30" as="geometry">
            <mxRectangle width="140" height="30" as="alternateBounds" />
          </mxGeometry>
        </mxCell>
        <mxCell id="nq9YgbKy66_ZBbjp5Jeb-99" value="" style="shape=tableRow;horizontal=0;startSize=0;swimlaneHead=0;swimlaneBody=0;fillColor=none;collapsible=0;dropTarget=0;points=[[0,0.5],[1,0.5]];portConstraint=eastwest;top=0;left=0;right=0;bottom=0;" parent="nq9YgbKy66_ZBbjp5Jeb-95" vertex="1">
          <mxGeometry y="60" width="180" height="30" as="geometry" />
        </mxCell>
        <mxCell id="nq9YgbKy66_ZBbjp5Jeb-100" value="" style="shape=partialRectangle;connectable=0;fillColor=none;top=0;left=0;bottom=0;right=0;editable=1;overflow=hidden;whiteSpace=wrap;html=1;" parent="nq9YgbKy66_ZBbjp5Jeb-99" vertex="1">
          <mxGeometry width="40" height="30" as="geometry">
            <mxRectangle width="40" height="30" as="alternateBounds" />
          </mxGeometry>
        </mxCell>
        <mxCell id="nq9YgbKy66_ZBbjp5Jeb-101" value="name" style="shape=partialRectangle;connectable=0;fillColor=none;top=0;left=0;bottom=0;right=0;align=left;spacingLeft=6;overflow=hidden;whiteSpace=wrap;html=1;" parent="nq9YgbKy66_ZBbjp5Jeb-99" vertex="1">
          <mxGeometry x="40" width="140" height="30" as="geometry">
            <mxRectangle width="140" height="30" as="alternateBounds" />
          </mxGeometry>
        </mxCell>
        <mxCell id="nq9YgbKy66_ZBbjp5Jeb-102" value="" style="shape=tableRow;horizontal=0;startSize=0;swimlaneHead=0;swimlaneBody=0;fillColor=none;collapsible=0;dropTarget=0;points=[[0,0.5],[1,0.5]];portConstraint=eastwest;top=0;left=0;right=0;bottom=0;" parent="nq9YgbKy66_ZBbjp5Jeb-95" vertex="1">
          <mxGeometry y="90" width="180" height="30" as="geometry" />
        </mxCell>
        <mxCell id="nq9YgbKy66_ZBbjp5Jeb-103" value="" style="shape=partialRectangle;connectable=0;fillColor=none;top=0;left=0;bottom=0;right=0;editable=1;overflow=hidden;whiteSpace=wrap;html=1;" parent="nq9YgbKy66_ZBbjp5Jeb-102" vertex="1">
          <mxGeometry width="40" height="30" as="geometry">
            <mxRectangle width="40" height="30" as="alternateBounds" />
          </mxGeometry>
        </mxCell>
        <mxCell id="nq9YgbKy66_ZBbjp5Jeb-104" value="address" style="shape=partialRectangle;connectable=0;fillColor=none;top=0;left=0;bottom=0;right=0;align=left;spacingLeft=6;overflow=hidden;whiteSpace=wrap;html=1;" parent="nq9YgbKy66_ZBbjp5Jeb-102" vertex="1">
          <mxGeometry x="40" width="140" height="30" as="geometry">
            <mxRectangle width="140" height="30" as="alternateBounds" />
          </mxGeometry>
        </mxCell>
        <mxCell id="nq9YgbKy66_ZBbjp5Jeb-105" value="" style="shape=tableRow;horizontal=0;startSize=0;swimlaneHead=0;swimlaneBody=0;fillColor=none;collapsible=0;dropTarget=0;points=[[0,0.5],[1,0.5]];portConstraint=eastwest;top=0;left=0;right=0;bottom=0;" parent="nq9YgbKy66_ZBbjp5Jeb-95" vertex="1">
          <mxGeometry y="120" width="180" height="30" as="geometry" />
        </mxCell>
        <mxCell id="nq9YgbKy66_ZBbjp5Jeb-106" value="" style="shape=partialRectangle;connectable=0;fillColor=none;top=0;left=0;bottom=0;right=0;editable=1;overflow=hidden;" parent="nq9YgbKy66_ZBbjp5Jeb-105" vertex="1">
          <mxGeometry width="40" height="30" as="geometry">
            <mxRectangle width="40" height="30" as="alternateBounds" />
          </mxGeometry>
        </mxCell>
        <mxCell id="nq9YgbKy66_ZBbjp5Jeb-107" value="latitude" style="shape=partialRectangle;connectable=0;fillColor=none;top=0;left=0;bottom=0;right=0;align=left;spacingLeft=6;overflow=hidden;" parent="nq9YgbKy66_ZBbjp5Jeb-105" vertex="1">
          <mxGeometry x="40" width="140" height="30" as="geometry">
            <mxRectangle width="140" height="30" as="alternateBounds" />
          </mxGeometry>
        </mxCell>
        <mxCell id="nq9YgbKy66_ZBbjp5Jeb-108" value="" style="shape=tableRow;horizontal=0;startSize=0;swimlaneHead=0;swimlaneBody=0;fillColor=none;collapsible=0;dropTarget=0;points=[[0,0.5],[1,0.5]];portConstraint=eastwest;top=0;left=0;right=0;bottom=0;" parent="nq9YgbKy66_ZBbjp5Jeb-95" vertex="1">
          <mxGeometry y="150" width="180" height="30" as="geometry" />
        </mxCell>
        <mxCell id="nq9YgbKy66_ZBbjp5Jeb-109" value="" style="shape=partialRectangle;connectable=0;fillColor=none;top=0;left=0;bottom=0;right=0;editable=1;overflow=hidden;" parent="nq9YgbKy66_ZBbjp5Jeb-108" vertex="1">
          <mxGeometry width="40" height="30" as="geometry">
            <mxRectangle width="40" height="30" as="alternateBounds" />
          </mxGeometry>
        </mxCell>
        <mxCell id="nq9YgbKy66_ZBbjp5Jeb-110" value="longitude" style="shape=partialRectangle;connectable=0;fillColor=none;top=0;left=0;bottom=0;right=0;align=left;spacingLeft=6;overflow=hidden;" parent="nq9YgbKy66_ZBbjp5Jeb-108" vertex="1">
          <mxGeometry x="40" width="140" height="30" as="geometry">
            <mxRectangle width="140" height="30" as="alternateBounds" />
          </mxGeometry>
        </mxCell>
        <mxCell id="nq9YgbKy66_ZBbjp5Jeb-136" style="edgeStyle=orthogonalEdgeStyle;rounded=0;orthogonalLoop=1;jettySize=auto;html=1;endArrow=none;endFill=0;exitX=1;exitY=0.5;exitDx=0;exitDy=0;" parent="1" source="nq9YgbKy66_ZBbjp5Jeb-160" target="nq9YgbKy66_ZBbjp5Jeb-95" edge="1">
          <mxGeometry relative="1" as="geometry">
            <Array as="points">
              <mxPoint x="690" y="215" />
            </Array>
          </mxGeometry>
        </mxCell>
        <mxCell id="nq9YgbKy66_ZBbjp5Jeb-137" style="edgeStyle=orthogonalEdgeStyle;rounded=0;orthogonalLoop=1;jettySize=auto;html=1;endArrow=none;endFill=0;exitX=1.004;exitY=0.833;exitDx=0;exitDy=0;exitPerimeter=0;" parent="1" source="nq9YgbKy66_ZBbjp5Jeb-35" target="nq9YgbKy66_ZBbjp5Jeb-95" edge="1">
          <mxGeometry relative="1" as="geometry">
            <Array as="points">
              <mxPoint x="690" y="570" />
            </Array>
          </mxGeometry>
        </mxCell>
        <mxCell id="nq9YgbKy66_ZBbjp5Jeb-138" style="edgeStyle=orthogonalEdgeStyle;rounded=0;orthogonalLoop=1;jettySize=auto;html=1;entryX=0;entryY=0.5;entryDx=0;entryDy=0;endArrow=none;endFill=0;" parent="1" source="nq9YgbKy66_ZBbjp5Jeb-8" target="nq9YgbKy66_ZBbjp5Jeb-102" edge="1">
          <mxGeometry relative="1" as="geometry" />
        </mxCell>
        <mxCell id="nq9YgbKy66_ZBbjp5Jeb-159" style="edgeStyle=orthogonalEdgeStyle;rounded=0;orthogonalLoop=1;jettySize=auto;html=1;endArrow=none;endFill=0;" parent="1" source="nq9YgbKy66_ZBbjp5Jeb-32" target="nq9YgbKy66_ZBbjp5Jeb-1" edge="1">
          <mxGeometry relative="1" as="geometry" />
        </mxCell>
        <mxCell id="nq9YgbKy66_ZBbjp5Jeb-163" value="" style="shape=table;startSize=0;container=1;collapsible=1;childLayout=tableLayout;fixedRows=1;rowLines=0;fontStyle=0;align=center;resizeLast=1;strokeColor=none;fillColor=none;collapsible=0;whiteSpace=wrap;html=1;" parent="1" vertex="1">
          <mxGeometry x="800" y="330" width="230" height="30" as="geometry" />
        </mxCell>
        <mxCell id="nq9YgbKy66_ZBbjp5Jeb-164" value="" style="shape=tableRow;horizontal=0;startSize=0;swimlaneHead=0;swimlaneBody=0;fillColor=none;collapsible=0;dropTarget=0;points=[[0,0.5],[1,0.5]];portConstraint=eastwest;top=0;left=0;right=0;bottom=0;" parent="nq9YgbKy66_ZBbjp5Jeb-163" vertex="1">
          <mxGeometry width="230" height="30" as="geometry" />
        </mxCell>
        <mxCell id="nq9YgbKy66_ZBbjp5Jeb-165" value="" style="shape=partialRectangle;connectable=0;fillColor=none;top=0;left=0;bottom=0;right=0;editable=1;overflow=hidden;" parent="nq9YgbKy66_ZBbjp5Jeb-164" vertex="1">
          <mxGeometry width="30" height="30" as="geometry">
            <mxRectangle width="30" height="30" as="alternateBounds" />
          </mxGeometry>
        </mxCell>
        <mxCell id="nq9YgbKy66_ZBbjp5Jeb-166" value="For caching, remove the need &#xa;to search again" style="shape=partialRectangle;connectable=0;fillColor=none;top=0;left=0;bottom=0;right=0;align=left;spacingLeft=6;overflow=hidden;" parent="nq9YgbKy66_ZBbjp5Jeb-164" vertex="1">
          <mxGeometry x="30" width="200" height="30" as="geometry">
            <mxRectangle width="200" height="30" as="alternateBounds" />
          </mxGeometry>
        </mxCell>
        <mxCell id="MVuut8si-COyN7iFqZHf-1" value="Guardian" style="shape=table;startSize=30;container=1;collapsible=1;childLayout=tableLayout;fixedRows=1;rowLines=0;fontStyle=1;align=center;resizeLast=1;html=1;" parent="1" vertex="1">
          <mxGeometry x="-80" y="1120" width="240" height="90" as="geometry" />
        </mxCell>
        <mxCell id="MVuut8si-COyN7iFqZHf-2" value="" style="shape=tableRow;horizontal=0;startSize=0;swimlaneHead=0;swimlaneBody=0;fillColor=none;collapsible=0;dropTarget=0;points=[[0,0.5],[1,0.5]];portConstraint=eastwest;top=0;left=0;right=0;bottom=1;" parent="MVuut8si-COyN7iFqZHf-1" vertex="1">
          <mxGeometry y="30" width="240" height="30" as="geometry" />
        </mxCell>
        <mxCell id="MVuut8si-COyN7iFqZHf-3" value="PK" style="shape=partialRectangle;connectable=0;fillColor=none;top=0;left=0;bottom=0;right=0;fontStyle=1;overflow=hidden;whiteSpace=wrap;html=1;" parent="MVuut8si-COyN7iFqZHf-2" vertex="1">
          <mxGeometry width="30" height="30" as="geometry">
            <mxRectangle width="30" height="30" as="alternateBounds" />
          </mxGeometry>
        </mxCell>
        <mxCell id="MVuut8si-COyN7iFqZHf-4" value="userId" style="shape=partialRectangle;connectable=0;fillColor=none;top=0;left=0;bottom=0;right=0;align=left;spacingLeft=6;fontStyle=5;overflow=hidden;whiteSpace=wrap;html=1;" parent="MVuut8si-COyN7iFqZHf-2" vertex="1">
          <mxGeometry x="30" width="210" height="30" as="geometry">
            <mxRectangle width="210" height="30" as="alternateBounds" />
          </mxGeometry>
        </mxCell>
        <mxCell id="MVuut8si-COyN7iFqZHf-148" value="" style="shape=tableRow;horizontal=0;startSize=0;swimlaneHead=0;swimlaneBody=0;fillColor=none;collapsible=0;dropTarget=0;points=[[0,0.5],[1,0.5]];portConstraint=eastwest;top=0;left=0;right=0;bottom=0;" parent="MVuut8si-COyN7iFqZHf-1" vertex="1">
          <mxGeometry y="60" width="240" height="30" as="geometry" />
        </mxCell>
        <mxCell id="MVuut8si-COyN7iFqZHf-149" value="" style="shape=partialRectangle;connectable=0;fillColor=none;top=0;left=0;bottom=0;right=0;editable=1;overflow=hidden;" parent="MVuut8si-COyN7iFqZHf-148" vertex="1">
          <mxGeometry width="30" height="30" as="geometry">
            <mxRectangle width="30" height="30" as="alternateBounds" />
          </mxGeometry>
        </mxCell>
        <mxCell id="MVuut8si-COyN7iFqZHf-150" value="trackingPassengers: Passenger[]" style="shape=partialRectangle;connectable=0;fillColor=none;top=0;left=0;bottom=0;right=0;align=left;spacingLeft=6;overflow=hidden;" parent="MVuut8si-COyN7iFqZHf-148" vertex="1">
          <mxGeometry x="30" width="210" height="30" as="geometry">
            <mxRectangle width="210" height="30" as="alternateBounds" />
          </mxGeometry>
        </mxCell>
        <mxCell id="MVuut8si-COyN7iFqZHf-17" style="edgeStyle=orthogonalEdgeStyle;rounded=0;orthogonalLoop=1;jettySize=auto;html=1;endArrow=none;endFill=0;" parent="1" source="MVuut8si-COyN7iFqZHf-18" target="MVuut8si-COyN7iFqZHf-41" edge="1">
          <mxGeometry relative="1" as="geometry" />
        </mxCell>
        <mxCell id="MVuut8si-COyN7iFqZHf-18" value="Passenger" style="shape=table;startSize=30;container=1;collapsible=1;childLayout=tableLayout;fixedRows=1;rowLines=0;fontStyle=1;align=center;resizeLast=1;html=1;" parent="1" vertex="1">
          <mxGeometry x="250" y="1035" width="230" height="240" as="geometry" />
        </mxCell>
        <mxCell id="MVuut8si-COyN7iFqZHf-19" value="" style="shape=tableRow;horizontal=0;startSize=0;swimlaneHead=0;swimlaneBody=0;fillColor=none;collapsible=0;dropTarget=0;points=[[0,0.5],[1,0.5]];portConstraint=eastwest;top=0;left=0;right=0;bottom=1;" parent="MVuut8si-COyN7iFqZHf-18" vertex="1">
          <mxGeometry y="30" width="230" height="30" as="geometry" />
        </mxCell>
        <mxCell id="MVuut8si-COyN7iFqZHf-20" value="PK" style="shape=partialRectangle;connectable=0;fillColor=none;top=0;left=0;bottom=0;right=0;fontStyle=1;overflow=hidden;whiteSpace=wrap;html=1;" parent="MVuut8si-COyN7iFqZHf-19" vertex="1">
          <mxGeometry width="40" height="30" as="geometry">
            <mxRectangle width="40" height="30" as="alternateBounds" />
          </mxGeometry>
        </mxCell>
        <mxCell id="MVuut8si-COyN7iFqZHf-21" value="passengerId" style="shape=partialRectangle;connectable=0;fillColor=none;top=0;left=0;bottom=0;right=0;align=left;spacingLeft=6;fontStyle=5;overflow=hidden;whiteSpace=wrap;html=1;" parent="MVuut8si-COyN7iFqZHf-19" vertex="1">
          <mxGeometry x="40" width="190" height="30" as="geometry">
            <mxRectangle width="190" height="30" as="alternateBounds" />
          </mxGeometry>
        </mxCell>
        <mxCell id="MVuut8si-COyN7iFqZHf-22" value="" style="shape=tableRow;horizontal=0;startSize=0;swimlaneHead=0;swimlaneBody=0;fillColor=none;collapsible=0;dropTarget=0;points=[[0,0.5],[1,0.5]];portConstraint=eastwest;top=0;left=0;right=0;bottom=0;" parent="MVuut8si-COyN7iFqZHf-18" vertex="1">
          <mxGeometry y="60" width="230" height="30" as="geometry" />
        </mxCell>
        <mxCell id="MVuut8si-COyN7iFqZHf-23" value="FK" style="shape=partialRectangle;connectable=0;fillColor=none;top=0;left=0;bottom=0;right=0;fontStyle=0;overflow=hidden;whiteSpace=wrap;html=1;" parent="MVuut8si-COyN7iFqZHf-22" vertex="1">
          <mxGeometry width="40" height="30" as="geometry">
            <mxRectangle width="40" height="30" as="alternateBounds" />
          </mxGeometry>
        </mxCell>
        <mxCell id="MVuut8si-COyN7iFqZHf-24" value="userId" style="shape=partialRectangle;connectable=0;fillColor=none;top=0;left=0;bottom=0;right=0;align=left;spacingLeft=6;fontStyle=0;overflow=hidden;whiteSpace=wrap;html=1;" parent="MVuut8si-COyN7iFqZHf-22" vertex="1">
          <mxGeometry x="40" width="190" height="30" as="geometry">
            <mxRectangle width="190" height="30" as="alternateBounds" />
          </mxGeometry>
        </mxCell>
        <mxCell id="MVuut8si-COyN7iFqZHf-25" value="" style="shape=tableRow;horizontal=0;startSize=0;swimlaneHead=0;swimlaneBody=0;fillColor=none;collapsible=0;dropTarget=0;points=[[0,0.5],[1,0.5]];portConstraint=eastwest;top=0;left=0;right=0;bottom=0;" parent="MVuut8si-COyN7iFqZHf-18" vertex="1">
          <mxGeometry y="90" width="230" height="30" as="geometry" />
        </mxCell>
        <mxCell id="MVuut8si-COyN7iFqZHf-26" value="" style="shape=partialRectangle;connectable=0;fillColor=none;top=0;left=0;bottom=0;right=0;editable=1;overflow=hidden;whiteSpace=wrap;html=1;" parent="MVuut8si-COyN7iFqZHf-25" vertex="1">
          <mxGeometry width="40" height="30" as="geometry">
            <mxRectangle width="40" height="30" as="alternateBounds" />
          </mxGeometry>
        </mxCell>
        <mxCell id="MVuut8si-COyN7iFqZHf-27" value="name" style="shape=partialRectangle;connectable=0;fillColor=none;top=0;left=0;bottom=0;right=0;align=left;spacingLeft=6;overflow=hidden;whiteSpace=wrap;html=1;" parent="MVuut8si-COyN7iFqZHf-25" vertex="1">
          <mxGeometry x="40" width="190" height="30" as="geometry">
            <mxRectangle width="190" height="30" as="alternateBounds" />
          </mxGeometry>
        </mxCell>
        <mxCell id="MVuut8si-COyN7iFqZHf-28" value="" style="shape=tableRow;horizontal=0;startSize=0;swimlaneHead=0;swimlaneBody=0;fillColor=none;collapsible=0;dropTarget=0;points=[[0,0.5],[1,0.5]];portConstraint=eastwest;top=0;left=0;right=0;bottom=0;" parent="MVuut8si-COyN7iFqZHf-18" vertex="1">
          <mxGeometry y="120" width="230" height="30" as="geometry" />
        </mxCell>
        <mxCell id="MVuut8si-COyN7iFqZHf-29" value="" style="shape=partialRectangle;connectable=0;fillColor=none;top=0;left=0;bottom=0;right=0;editable=1;overflow=hidden;whiteSpace=wrap;html=1;" parent="MVuut8si-COyN7iFqZHf-28" vertex="1">
          <mxGeometry width="40" height="30" as="geometry">
            <mxRectangle width="40" height="30" as="alternateBounds" />
          </mxGeometry>
        </mxCell>
        <mxCell id="MVuut8si-COyN7iFqZHf-30" value="origin:&amp;nbsp;Location" style="shape=partialRectangle;connectable=0;fillColor=none;top=0;left=0;bottom=0;right=0;align=left;spacingLeft=6;overflow=hidden;whiteSpace=wrap;html=1;" parent="MVuut8si-COyN7iFqZHf-28" vertex="1">
          <mxGeometry x="40" width="190" height="30" as="geometry">
            <mxRectangle width="190" height="30" as="alternateBounds" />
          </mxGeometry>
        </mxCell>
        <mxCell id="MVuut8si-COyN7iFqZHf-31" value="" style="shape=tableRow;horizontal=0;startSize=0;swimlaneHead=0;swimlaneBody=0;fillColor=none;collapsible=0;dropTarget=0;points=[[0,0.5],[1,0.5]];portConstraint=eastwest;top=0;left=0;right=0;bottom=0;" parent="MVuut8si-COyN7iFqZHf-18" vertex="1">
          <mxGeometry y="150" width="230" height="30" as="geometry" />
        </mxCell>
        <mxCell id="MVuut8si-COyN7iFqZHf-32" value="" style="shape=partialRectangle;connectable=0;fillColor=none;top=0;left=0;bottom=0;right=0;editable=1;overflow=hidden;" parent="MVuut8si-COyN7iFqZHf-31" vertex="1">
          <mxGeometry width="40" height="30" as="geometry">
            <mxRectangle width="40" height="30" as="alternateBounds" />
          </mxGeometry>
        </mxCell>
        <mxCell id="MVuut8si-COyN7iFqZHf-33" value="destinations: Location[]" style="shape=partialRectangle;connectable=0;fillColor=none;top=0;left=0;bottom=0;right=0;align=left;spacingLeft=6;overflow=hidden;" parent="MVuut8si-COyN7iFqZHf-31" vertex="1">
          <mxGeometry x="40" width="190" height="30" as="geometry">
            <mxRectangle width="190" height="30" as="alternateBounds" />
          </mxGeometry>
        </mxCell>
        <mxCell id="MVuut8si-COyN7iFqZHf-34" value="" style="shape=tableRow;horizontal=0;startSize=0;swimlaneHead=0;swimlaneBody=0;fillColor=none;collapsible=0;dropTarget=0;points=[[0,0.5],[1,0.5]];portConstraint=eastwest;top=0;left=0;right=0;bottom=0;" parent="MVuut8si-COyN7iFqZHf-18" vertex="1">
          <mxGeometry y="180" width="230" height="30" as="geometry" />
        </mxCell>
        <mxCell id="MVuut8si-COyN7iFqZHf-35" value="" style="shape=partialRectangle;connectable=0;fillColor=none;top=0;left=0;bottom=0;right=0;editable=1;overflow=hidden;" parent="MVuut8si-COyN7iFqZHf-34" vertex="1">
          <mxGeometry width="40" height="30" as="geometry">
            <mxRectangle width="40" height="30" as="alternateBounds" />
          </mxGeometry>
        </mxCell>
        <mxCell id="MVuut8si-COyN7iFqZHf-36" value="deadline: Date / int" style="shape=partialRectangle;connectable=0;fillColor=none;top=0;left=0;bottom=0;right=0;align=left;spacingLeft=6;overflow=hidden;" parent="MVuut8si-COyN7iFqZHf-34" vertex="1">
          <mxGeometry x="40" width="190" height="30" as="geometry">
            <mxRectangle width="190" height="30" as="alternateBounds" />
          </mxGeometry>
        </mxCell>
        <mxCell id="MVuut8si-COyN7iFqZHf-37" value="" style="shape=tableRow;horizontal=0;startSize=0;swimlaneHead=0;swimlaneBody=0;fillColor=none;collapsible=0;dropTarget=0;points=[[0,0.5],[1,0.5]];portConstraint=eastwest;top=0;left=0;right=0;bottom=0;" parent="MVuut8si-COyN7iFqZHf-18" vertex="1">
          <mxGeometry y="210" width="230" height="30" as="geometry" />
        </mxCell>
        <mxCell id="MVuut8si-COyN7iFqZHf-38" value="" style="shape=partialRectangle;connectable=0;fillColor=none;top=0;left=0;bottom=0;right=0;editable=1;overflow=hidden;" parent="MVuut8si-COyN7iFqZHf-37" vertex="1">
          <mxGeometry width="40" height="30" as="geometry">
            <mxRectangle width="40" height="30" as="alternateBounds" />
          </mxGeometry>
        </mxCell>
        <mxCell id="MVuut8si-COyN7iFqZHf-39" value="notes" style="shape=partialRectangle;connectable=0;fillColor=none;top=0;left=0;bottom=0;right=0;align=left;spacingLeft=6;overflow=hidden;" parent="MVuut8si-COyN7iFqZHf-37" vertex="1">
          <mxGeometry x="40" width="190" height="30" as="geometry">
            <mxRectangle width="190" height="30" as="alternateBounds" />
          </mxGeometry>
        </mxCell>
        <mxCell id="MVuut8si-COyN7iFqZHf-41" value="Routes" style="shape=table;startSize=30;container=1;collapsible=1;childLayout=tableLayout;fixedRows=1;rowLines=0;fontStyle=1;align=center;resizeLast=1;html=1;" parent="1" vertex="1">
          <mxGeometry x="250" y="760" width="230" height="210" as="geometry" />
        </mxCell>
        <mxCell id="MVuut8si-COyN7iFqZHf-42" value="" style="shape=tableRow;horizontal=0;startSize=0;swimlaneHead=0;swimlaneBody=0;fillColor=none;collapsible=0;dropTarget=0;points=[[0,0.5],[1,0.5]];portConstraint=eastwest;top=0;left=0;right=0;bottom=1;" parent="MVuut8si-COyN7iFqZHf-41" vertex="1">
          <mxGeometry y="30" width="230" height="30" as="geometry" />
        </mxCell>
        <mxCell id="MVuut8si-COyN7iFqZHf-43" value="PK" style="shape=partialRectangle;connectable=0;fillColor=none;top=0;left=0;bottom=0;right=0;fontStyle=1;overflow=hidden;whiteSpace=wrap;html=1;" parent="MVuut8si-COyN7iFqZHf-42" vertex="1">
          <mxGeometry width="50" height="30" as="geometry">
            <mxRectangle width="50" height="30" as="alternateBounds" />
          </mxGeometry>
        </mxCell>
        <mxCell id="MVuut8si-COyN7iFqZHf-44" value="routeId" style="shape=partialRectangle;connectable=0;fillColor=none;top=0;left=0;bottom=0;right=0;align=left;spacingLeft=6;fontStyle=5;overflow=hidden;whiteSpace=wrap;html=1;" parent="MVuut8si-COyN7iFqZHf-42" vertex="1">
          <mxGeometry x="50" width="180" height="30" as="geometry">
            <mxRectangle width="180" height="30" as="alternateBounds" />
          </mxGeometry>
        </mxCell>
        <mxCell id="MVuut8si-COyN7iFqZHf-45" value="" style="shape=tableRow;horizontal=0;startSize=0;swimlaneHead=0;swimlaneBody=0;fillColor=none;collapsible=0;dropTarget=0;points=[[0,0.5],[1,0.5]];portConstraint=eastwest;top=0;left=0;right=0;bottom=0;" parent="MVuut8si-COyN7iFqZHf-41" vertex="1">
          <mxGeometry y="60" width="230" height="30" as="geometry" />
        </mxCell>
        <mxCell id="MVuut8si-COyN7iFqZHf-46" value="FK" style="shape=partialRectangle;connectable=0;fillColor=none;top=0;left=0;bottom=0;right=0;fontStyle=0;overflow=hidden;whiteSpace=wrap;html=1;" parent="MVuut8si-COyN7iFqZHf-45" vertex="1">
          <mxGeometry width="50" height="30" as="geometry">
            <mxRectangle width="50" height="30" as="alternateBounds" />
          </mxGeometry>
        </mxCell>
        <mxCell id="MVuut8si-COyN7iFqZHf-47" value="userId" style="shape=partialRectangle;connectable=0;fillColor=none;top=0;left=0;bottom=0;right=0;align=left;spacingLeft=6;fontStyle=0;overflow=hidden;whiteSpace=wrap;html=1;" parent="MVuut8si-COyN7iFqZHf-45" vertex="1">
          <mxGeometry x="50" width="180" height="30" as="geometry">
            <mxRectangle width="180" height="30" as="alternateBounds" />
          </mxGeometry>
        </mxCell>
        <mxCell id="MVuut8si-COyN7iFqZHf-48" value="" style="shape=tableRow;horizontal=0;startSize=0;swimlaneHead=0;swimlaneBody=0;fillColor=none;collapsible=0;dropTarget=0;points=[[0,0.5],[1,0.5]];portConstraint=eastwest;top=0;left=0;right=0;bottom=0;" parent="MVuut8si-COyN7iFqZHf-41" vertex="1">
          <mxGeometry y="90" width="230" height="30" as="geometry" />
        </mxCell>
        <mxCell id="MVuut8si-COyN7iFqZHf-49" value="" style="shape=partialRectangle;connectable=0;fillColor=none;top=0;left=0;bottom=0;right=0;editable=1;overflow=hidden;whiteSpace=wrap;html=1;" parent="MVuut8si-COyN7iFqZHf-48" vertex="1">
          <mxGeometry width="50" height="30" as="geometry">
            <mxRectangle width="50" height="30" as="alternateBounds" />
          </mxGeometry>
        </mxCell>
        <mxCell id="MVuut8si-COyN7iFqZHf-50" value="name" style="shape=partialRectangle;connectable=0;fillColor=none;top=0;left=0;bottom=0;right=0;align=left;spacingLeft=6;overflow=hidden;whiteSpace=wrap;html=1;" parent="MVuut8si-COyN7iFqZHf-48" vertex="1">
          <mxGeometry x="50" width="180" height="30" as="geometry">
            <mxRectangle width="180" height="30" as="alternateBounds" />
          </mxGeometry>
        </mxCell>
        <mxCell id="MVuut8si-COyN7iFqZHf-51" value="" style="shape=tableRow;horizontal=0;startSize=0;swimlaneHead=0;swimlaneBody=0;fillColor=none;collapsible=0;dropTarget=0;points=[[0,0.5],[1,0.5]];portConstraint=eastwest;top=0;left=0;right=0;bottom=0;" parent="MVuut8si-COyN7iFqZHf-41" vertex="1">
          <mxGeometry y="120" width="230" height="30" as="geometry" />
        </mxCell>
        <mxCell id="MVuut8si-COyN7iFqZHf-52" value="" style="shape=partialRectangle;connectable=0;fillColor=none;top=0;left=0;bottom=0;right=0;editable=1;overflow=hidden;whiteSpace=wrap;html=1;" parent="MVuut8si-COyN7iFqZHf-51" vertex="1">
          <mxGeometry width="50" height="30" as="geometry">
            <mxRectangle width="50" height="30" as="alternateBounds" />
          </mxGeometry>
        </mxCell>
        <mxCell id="MVuut8si-COyN7iFqZHf-53" value="passengers: Passenger[]" style="shape=partialRectangle;connectable=0;fillColor=none;top=0;left=0;bottom=0;right=0;align=left;spacingLeft=6;overflow=hidden;whiteSpace=wrap;html=1;" parent="MVuut8si-COyN7iFqZHf-51" vertex="1">
          <mxGeometry x="50" width="180" height="30" as="geometry">
            <mxRectangle width="180" height="30" as="alternateBounds" />
          </mxGeometry>
        </mxCell>
        <mxCell id="MVuut8si-COyN7iFqZHf-54" value="" style="shape=tableRow;horizontal=0;startSize=0;swimlaneHead=0;swimlaneBody=0;fillColor=none;collapsible=0;dropTarget=0;points=[[0,0.5],[1,0.5]];portConstraint=eastwest;top=0;left=0;right=0;bottom=0;" parent="MVuut8si-COyN7iFqZHf-41" vertex="1">
          <mxGeometry y="150" width="230" height="30" as="geometry" />
        </mxCell>
        <mxCell id="MVuut8si-COyN7iFqZHf-55" value="" style="shape=partialRectangle;connectable=0;fillColor=none;top=0;left=0;bottom=0;right=0;editable=1;overflow=hidden;" parent="MVuut8si-COyN7iFqZHf-54" vertex="1">
          <mxGeometry width="50" height="30" as="geometry">
            <mxRectangle width="50" height="30" as="alternateBounds" />
          </mxGeometry>
        </mxCell>
        <mxCell id="MVuut8si-COyN7iFqZHf-56" value="otherDestinations: Location[]" style="shape=partialRectangle;connectable=0;fillColor=none;top=0;left=0;bottom=0;right=0;align=left;spacingLeft=6;overflow=hidden;" parent="MVuut8si-COyN7iFqZHf-54" vertex="1">
          <mxGeometry x="50" width="180" height="30" as="geometry">
            <mxRectangle width="180" height="30" as="alternateBounds" />
          </mxGeometry>
        </mxCell>
        <mxCell id="MVuut8si-COyN7iFqZHf-57" value="" style="shape=tableRow;horizontal=0;startSize=0;swimlaneHead=0;swimlaneBody=0;fillColor=none;collapsible=0;dropTarget=0;points=[[0,0.5],[1,0.5]];portConstraint=eastwest;top=0;left=0;right=0;bottom=0;" parent="MVuut8si-COyN7iFqZHf-41" vertex="1">
          <mxGeometry y="180" width="230" height="30" as="geometry" />
        </mxCell>
        <mxCell id="MVuut8si-COyN7iFqZHf-58" value="" style="shape=partialRectangle;connectable=0;fillColor=none;top=0;left=0;bottom=0;right=0;editable=1;overflow=hidden;" parent="MVuut8si-COyN7iFqZHf-57" vertex="1">
          <mxGeometry width="50" height="30" as="geometry">
            <mxRectangle width="50" height="30" as="alternateBounds" />
          </mxGeometry>
        </mxCell>
        <mxCell id="MVuut8si-COyN7iFqZHf-59" value="notes" style="shape=partialRectangle;connectable=0;fillColor=none;top=0;left=0;bottom=0;right=0;align=left;spacingLeft=6;overflow=hidden;" parent="MVuut8si-COyN7iFqZHf-57" vertex="1">
          <mxGeometry x="50" width="180" height="30" as="geometry">
            <mxRectangle width="180" height="30" as="alternateBounds" />
          </mxGeometry>
        </mxCell>
        <mxCell id="MVuut8si-COyN7iFqZHf-60" value="Location" style="shape=table;startSize=30;container=1;collapsible=1;childLayout=tableLayout;fixedRows=1;rowLines=0;fontStyle=1;align=center;resizeLast=1;html=1;" parent="1" vertex="1">
          <mxGeometry x="580" y="900" width="180" height="210" as="geometry" />
        </mxCell>
        <mxCell id="MVuut8si-COyN7iFqZHf-61" value="" style="shape=tableRow;horizontal=0;startSize=0;swimlaneHead=0;swimlaneBody=0;fillColor=none;collapsible=0;dropTarget=0;points=[[0,0.5],[1,0.5]];portConstraint=eastwest;top=0;left=0;right=0;bottom=1;" parent="MVuut8si-COyN7iFqZHf-60" vertex="1">
          <mxGeometry y="30" width="180" height="30" as="geometry" />
        </mxCell>
        <mxCell id="MVuut8si-COyN7iFqZHf-62" value="PK" style="shape=partialRectangle;connectable=0;fillColor=none;top=0;left=0;bottom=0;right=0;fontStyle=1;overflow=hidden;whiteSpace=wrap;html=1;" parent="MVuut8si-COyN7iFqZHf-61" vertex="1">
          <mxGeometry width="40" height="30" as="geometry">
            <mxRectangle width="40" height="30" as="alternateBounds" />
          </mxGeometry>
        </mxCell>
        <mxCell id="MVuut8si-COyN7iFqZHf-63" value="locationId" style="shape=partialRectangle;connectable=0;fillColor=none;top=0;left=0;bottom=0;right=0;align=left;spacingLeft=6;fontStyle=5;overflow=hidden;whiteSpace=wrap;html=1;" parent="MVuut8si-COyN7iFqZHf-61" vertex="1">
          <mxGeometry x="40" width="140" height="30" as="geometry">
            <mxRectangle width="140" height="30" as="alternateBounds" />
          </mxGeometry>
        </mxCell>
        <mxCell id="MVuut8si-COyN7iFqZHf-64" value="" style="shape=tableRow;horizontal=0;startSize=0;swimlaneHead=0;swimlaneBody=0;fillColor=none;collapsible=0;dropTarget=0;points=[[0,0.5],[1,0.5]];portConstraint=eastwest;top=0;left=0;right=0;bottom=0;" parent="MVuut8si-COyN7iFqZHf-60" vertex="1">
          <mxGeometry y="60" width="180" height="30" as="geometry" />
        </mxCell>
        <mxCell id="MVuut8si-COyN7iFqZHf-65" value="" style="shape=partialRectangle;connectable=0;fillColor=none;top=0;left=0;bottom=0;right=0;editable=1;overflow=hidden;whiteSpace=wrap;html=1;" parent="MVuut8si-COyN7iFqZHf-64" vertex="1">
          <mxGeometry width="40" height="30" as="geometry">
            <mxRectangle width="40" height="30" as="alternateBounds" />
          </mxGeometry>
        </mxCell>
        <mxCell id="MVuut8si-COyN7iFqZHf-66" value="name" style="shape=partialRectangle;connectable=0;fillColor=none;top=0;left=0;bottom=0;right=0;align=left;spacingLeft=6;overflow=hidden;whiteSpace=wrap;html=1;" parent="MVuut8si-COyN7iFqZHf-64" vertex="1">
          <mxGeometry x="40" width="140" height="30" as="geometry">
            <mxRectangle width="140" height="30" as="alternateBounds" />
          </mxGeometry>
        </mxCell>
        <mxCell id="MVuut8si-COyN7iFqZHf-67" value="" style="shape=tableRow;horizontal=0;startSize=0;swimlaneHead=0;swimlaneBody=0;fillColor=none;collapsible=0;dropTarget=0;points=[[0,0.5],[1,0.5]];portConstraint=eastwest;top=0;left=0;right=0;bottom=0;" parent="MVuut8si-COyN7iFqZHf-60" vertex="1">
          <mxGeometry y="90" width="180" height="30" as="geometry" />
        </mxCell>
        <mxCell id="MVuut8si-COyN7iFqZHf-68" value="" style="shape=partialRectangle;connectable=0;fillColor=none;top=0;left=0;bottom=0;right=0;editable=1;overflow=hidden;whiteSpace=wrap;html=1;" parent="MVuut8si-COyN7iFqZHf-67" vertex="1">
          <mxGeometry width="40" height="30" as="geometry">
            <mxRectangle width="40" height="30" as="alternateBounds" />
          </mxGeometry>
        </mxCell>
        <mxCell id="MVuut8si-COyN7iFqZHf-69" value="address" style="shape=partialRectangle;connectable=0;fillColor=none;top=0;left=0;bottom=0;right=0;align=left;spacingLeft=6;overflow=hidden;whiteSpace=wrap;html=1;" parent="MVuut8si-COyN7iFqZHf-67" vertex="1">
          <mxGeometry x="40" width="140" height="30" as="geometry">
            <mxRectangle width="140" height="30" as="alternateBounds" />
          </mxGeometry>
        </mxCell>
        <mxCell id="MVuut8si-COyN7iFqZHf-70" value="" style="shape=tableRow;horizontal=0;startSize=0;swimlaneHead=0;swimlaneBody=0;fillColor=none;collapsible=0;dropTarget=0;points=[[0,0.5],[1,0.5]];portConstraint=eastwest;top=0;left=0;right=0;bottom=0;" parent="MVuut8si-COyN7iFqZHf-60" vertex="1">
          <mxGeometry y="120" width="180" height="30" as="geometry" />
        </mxCell>
        <mxCell id="MVuut8si-COyN7iFqZHf-71" value="" style="shape=partialRectangle;connectable=0;fillColor=none;top=0;left=0;bottom=0;right=0;editable=1;overflow=hidden;" parent="MVuut8si-COyN7iFqZHf-70" vertex="1">
          <mxGeometry width="40" height="30" as="geometry">
            <mxRectangle width="40" height="30" as="alternateBounds" />
          </mxGeometry>
        </mxCell>
        <mxCell id="MVuut8si-COyN7iFqZHf-72" value="latitude" style="shape=partialRectangle;connectable=0;fillColor=none;top=0;left=0;bottom=0;right=0;align=left;spacingLeft=6;overflow=hidden;" parent="MVuut8si-COyN7iFqZHf-70" vertex="1">
          <mxGeometry x="40" width="140" height="30" as="geometry">
            <mxRectangle width="140" height="30" as="alternateBounds" />
          </mxGeometry>
        </mxCell>
        <mxCell id="MVuut8si-COyN7iFqZHf-73" value="" style="shape=tableRow;horizontal=0;startSize=0;swimlaneHead=0;swimlaneBody=0;fillColor=none;collapsible=0;dropTarget=0;points=[[0,0.5],[1,0.5]];portConstraint=eastwest;top=0;left=0;right=0;bottom=0;" parent="MVuut8si-COyN7iFqZHf-60" vertex="1">
          <mxGeometry y="150" width="180" height="30" as="geometry" />
        </mxCell>
        <mxCell id="MVuut8si-COyN7iFqZHf-74" value="" style="shape=partialRectangle;connectable=0;fillColor=none;top=0;left=0;bottom=0;right=0;editable=1;overflow=hidden;" parent="MVuut8si-COyN7iFqZHf-73" vertex="1">
          <mxGeometry width="40" height="30" as="geometry">
            <mxRectangle width="40" height="30" as="alternateBounds" />
          </mxGeometry>
        </mxCell>
        <mxCell id="MVuut8si-COyN7iFqZHf-75" value="longitude" style="shape=partialRectangle;connectable=0;fillColor=none;top=0;left=0;bottom=0;right=0;align=left;spacingLeft=6;overflow=hidden;" parent="MVuut8si-COyN7iFqZHf-73" vertex="1">
          <mxGeometry x="40" width="140" height="30" as="geometry">
            <mxRectangle width="140" height="30" as="alternateBounds" />
          </mxGeometry>
        </mxCell>
        <mxCell id="MVuut8si-COyN7iFqZHf-128" value="" style="shape=tableRow;horizontal=0;startSize=0;swimlaneHead=0;swimlaneBody=0;fillColor=none;collapsible=0;dropTarget=0;points=[[0,0.5],[1,0.5]];portConstraint=eastwest;top=0;left=0;right=0;bottom=0;" parent="MVuut8si-COyN7iFqZHf-60" vertex="1">
          <mxGeometry y="180" width="180" height="30" as="geometry" />
        </mxCell>
        <mxCell id="MVuut8si-COyN7iFqZHf-129" value="FK" style="shape=partialRectangle;connectable=0;fillColor=none;top=0;left=0;bottom=0;right=0;fontStyle=0;overflow=hidden;whiteSpace=wrap;html=1;" parent="MVuut8si-COyN7iFqZHf-128" vertex="1">
          <mxGeometry width="40" height="30" as="geometry">
            <mxRectangle width="40" height="30" as="alternateBounds" />
          </mxGeometry>
        </mxCell>
        <mxCell id="MVuut8si-COyN7iFqZHf-130" value="relatedTo: Passenger[]" style="shape=partialRectangle;connectable=0;fillColor=none;top=0;left=0;bottom=0;right=0;align=left;spacingLeft=6;fontStyle=0;overflow=hidden;whiteSpace=wrap;html=1;" parent="MVuut8si-COyN7iFqZHf-128" vertex="1">
          <mxGeometry x="40" width="140" height="30" as="geometry">
            <mxRectangle width="140" height="30" as="alternateBounds" />
          </mxGeometry>
        </mxCell>
        <mxCell id="MVuut8si-COyN7iFqZHf-76" style="edgeStyle=orthogonalEdgeStyle;rounded=0;orthogonalLoop=1;jettySize=auto;html=1;endArrow=none;endFill=0;exitX=1;exitY=0.5;exitDx=0;exitDy=0;" parent="1" source="MVuut8si-COyN7iFqZHf-45" target="MVuut8si-COyN7iFqZHf-60" edge="1">
          <mxGeometry relative="1" as="geometry">
            <Array as="points">
              <mxPoint x="670" y="835" />
            </Array>
          </mxGeometry>
        </mxCell>
        <mxCell id="MVuut8si-COyN7iFqZHf-77" style="edgeStyle=orthogonalEdgeStyle;rounded=0;orthogonalLoop=1;jettySize=auto;html=1;endArrow=none;endFill=0;exitX=1.004;exitY=0.833;exitDx=0;exitDy=0;exitPerimeter=0;" parent="1" source="MVuut8si-COyN7iFqZHf-28" target="MVuut8si-COyN7iFqZHf-60" edge="1">
          <mxGeometry relative="1" as="geometry">
            <Array as="points">
              <mxPoint x="670" y="1190" />
            </Array>
          </mxGeometry>
        </mxCell>
        <mxCell id="MVuut8si-COyN7iFqZHf-112" style="rounded=0;orthogonalLoop=1;jettySize=auto;html=1;endArrow=none;endFill=0;edgeStyle=orthogonalEdgeStyle;" parent="1" source="MVuut8si-COyN7iFqZHf-80" target="MVuut8si-COyN7iFqZHf-18" edge="1">
          <mxGeometry relative="1" as="geometry">
            <mxPoint x="240" y="1150" as="targetPoint" />
            <Array as="points">
              <mxPoint x="40" y="1080" />
            </Array>
          </mxGeometry>
        </mxCell>
        <mxCell id="MVuut8si-COyN7iFqZHf-122" style="edgeStyle=orthogonalEdgeStyle;rounded=0;orthogonalLoop=1;jettySize=auto;html=1;endArrow=none;endFill=0;" parent="1" source="MVuut8si-COyN7iFqZHf-80" target="MVuut8si-COyN7iFqZHf-41" edge="1">
          <mxGeometry relative="1" as="geometry" />
        </mxCell>
        <mxCell id="MVuut8si-COyN7iFqZHf-80" value="Driver" style="shape=table;startSize=30;container=1;collapsible=1;childLayout=tableLayout;fixedRows=1;rowLines=0;fontStyle=1;align=center;resizeLast=1;html=1;" parent="1" vertex="1">
          <mxGeometry x="-50" y="805" width="180" height="120" as="geometry" />
        </mxCell>
        <mxCell id="MVuut8si-COyN7iFqZHf-81" value="" style="shape=tableRow;horizontal=0;startSize=0;swimlaneHead=0;swimlaneBody=0;fillColor=none;collapsible=0;dropTarget=0;points=[[0,0.5],[1,0.5]];portConstraint=eastwest;top=0;left=0;right=0;bottom=1;" parent="MVuut8si-COyN7iFqZHf-80" vertex="1">
          <mxGeometry y="30" width="180" height="30" as="geometry" />
        </mxCell>
        <mxCell id="MVuut8si-COyN7iFqZHf-82" value="FK" style="shape=partialRectangle;connectable=0;fillColor=none;top=0;left=0;bottom=0;right=0;fontStyle=1;overflow=hidden;whiteSpace=wrap;html=1;" parent="MVuut8si-COyN7iFqZHf-81" vertex="1">
          <mxGeometry width="30" height="30" as="geometry">
            <mxRectangle width="30" height="30" as="alternateBounds" />
          </mxGeometry>
        </mxCell>
        <mxCell id="MVuut8si-COyN7iFqZHf-83" value="userId" style="shape=partialRectangle;connectable=0;fillColor=none;top=0;left=0;bottom=0;right=0;align=left;spacingLeft=6;fontStyle=5;overflow=hidden;whiteSpace=wrap;html=1;" parent="MVuut8si-COyN7iFqZHf-81" vertex="1">
          <mxGeometry x="30" width="150" height="30" as="geometry">
            <mxRectangle width="150" height="30" as="alternateBounds" />
          </mxGeometry>
        </mxCell>
        <mxCell id="MVuut8si-COyN7iFqZHf-90" value="" style="shape=tableRow;horizontal=0;startSize=0;swimlaneHead=0;swimlaneBody=0;fillColor=none;collapsible=0;dropTarget=0;points=[[0,0.5],[1,0.5]];portConstraint=eastwest;top=0;left=0;right=0;bottom=0;" parent="MVuut8si-COyN7iFqZHf-80" vertex="1">
          <mxGeometry y="60" width="180" height="30" as="geometry" />
        </mxCell>
        <mxCell id="MVuut8si-COyN7iFqZHf-91" value="" style="shape=partialRectangle;connectable=0;fillColor=none;top=0;left=0;bottom=0;right=0;editable=1;overflow=hidden;" parent="MVuut8si-COyN7iFqZHf-90" vertex="1">
          <mxGeometry width="30" height="30" as="geometry">
            <mxRectangle width="30" height="30" as="alternateBounds" />
          </mxGeometry>
        </mxCell>
        <mxCell id="MVuut8si-COyN7iFqZHf-92" value="userOrigin: Location" style="shape=partialRectangle;connectable=0;fillColor=none;top=0;left=0;bottom=0;right=0;align=left;spacingLeft=6;overflow=hidden;" parent="MVuut8si-COyN7iFqZHf-90" vertex="1">
          <mxGeometry x="30" width="150" height="30" as="geometry">
            <mxRectangle width="150" height="30" as="alternateBounds" />
          </mxGeometry>
        </mxCell>
        <mxCell id="MVuut8si-COyN7iFqZHf-93" value="" style="shape=tableRow;horizontal=0;startSize=0;swimlaneHead=0;swimlaneBody=0;fillColor=none;collapsible=0;dropTarget=0;points=[[0,0.5],[1,0.5]];portConstraint=eastwest;top=0;left=0;right=0;bottom=0;" parent="MVuut8si-COyN7iFqZHf-80" vertex="1">
          <mxGeometry y="90" width="180" height="30" as="geometry" />
        </mxCell>
        <mxCell id="MVuut8si-COyN7iFqZHf-94" value="" style="shape=partialRectangle;connectable=0;fillColor=none;top=0;left=0;bottom=0;right=0;editable=1;overflow=hidden;" parent="MVuut8si-COyN7iFqZHf-93" vertex="1">
          <mxGeometry width="30" height="30" as="geometry">
            <mxRectangle width="30" height="30" as="alternateBounds" />
          </mxGeometry>
        </mxCell>
        <mxCell id="MVuut8si-COyN7iFqZHf-95" value="routeHistory: Routes[]" style="shape=partialRectangle;connectable=0;fillColor=none;top=0;left=0;bottom=0;right=0;align=left;spacingLeft=6;overflow=hidden;" parent="MVuut8si-COyN7iFqZHf-93" vertex="1">
          <mxGeometry x="30" width="150" height="30" as="geometry">
            <mxRectangle width="150" height="30" as="alternateBounds" />
          </mxGeometry>
        </mxCell>
        <mxCell id="MVuut8si-COyN7iFqZHf-123" style="edgeStyle=orthogonalEdgeStyle;rounded=0;orthogonalLoop=1;jettySize=auto;html=1;endArrow=none;endFill=0;" parent="1" target="MVuut8si-COyN7iFqZHf-18" edge="1">
          <mxGeometry relative="1" as="geometry">
            <mxPoint x="160" y="1160.0526315789475" as="sourcePoint" />
            <Array as="points">
              <mxPoint x="230" y="1160" />
              <mxPoint x="230" y="1160" />
            </Array>
          </mxGeometry>
        </mxCell>
        <mxCell id="MVuut8si-COyN7iFqZHf-131" value="Subscribe through Ably channel with channel title as comma separated id&lt;br&gt;(check with contains() func)" style="text;html=1;align=center;verticalAlign=middle;resizable=0;points=[];autosize=1;strokeColor=none;fillColor=none;" parent="1" vertex="1">
          <mxGeometry x="-180" y="1220" width="410" height="40" as="geometry" />
        </mxCell>
        <mxCell id="X7ooAVoQ0JDo2GhMxT4V-17" style="edgeStyle=orthogonalEdgeStyle;rounded=0;orthogonalLoop=1;jettySize=auto;html=1;endArrow=none;endFill=0;" parent="1" source="X7ooAVoQ0JDo2GhMxT4V-1" target="MVuut8si-COyN7iFqZHf-80" edge="1">
          <mxGeometry relative="1" as="geometry">
            <Array as="points">
              <mxPoint x="-230" y="865" />
            </Array>
          </mxGeometry>
        </mxCell>
        <mxCell id="X7ooAVoQ0JDo2GhMxT4V-18" style="edgeStyle=orthogonalEdgeStyle;rounded=0;orthogonalLoop=1;jettySize=auto;html=1;endArrow=none;endFill=0;" parent="1" source="X7ooAVoQ0JDo2GhMxT4V-1" target="MVuut8si-COyN7iFqZHf-1" edge="1">
          <mxGeometry relative="1" as="geometry">
            <Array as="points">
              <mxPoint x="-230" y="1165" />
            </Array>
          </mxGeometry>
        </mxCell>
        <mxCell id="X7ooAVoQ0JDo2GhMxT4V-1" value="User" style="shape=table;startSize=30;container=1;collapsible=1;childLayout=tableLayout;fixedRows=1;rowLines=0;fontStyle=1;align=center;resizeLast=1;html=1;" parent="1" vertex="1">
          <mxGeometry x="-340" y="925" width="240" height="180" as="geometry" />
        </mxCell>
        <mxCell id="X7ooAVoQ0JDo2GhMxT4V-2" value="" style="shape=tableRow;horizontal=0;startSize=0;swimlaneHead=0;swimlaneBody=0;fillColor=none;collapsible=0;dropTarget=0;points=[[0,0.5],[1,0.5]];portConstraint=eastwest;top=0;left=0;right=0;bottom=1;" parent="X7ooAVoQ0JDo2GhMxT4V-1" vertex="1">
          <mxGeometry y="30" width="240" height="30" as="geometry" />
        </mxCell>
        <mxCell id="X7ooAVoQ0JDo2GhMxT4V-3" value="PK" style="shape=partialRectangle;connectable=0;fillColor=none;top=0;left=0;bottom=0;right=0;fontStyle=1;overflow=hidden;whiteSpace=wrap;html=1;" parent="X7ooAVoQ0JDo2GhMxT4V-2" vertex="1">
          <mxGeometry width="30" height="30" as="geometry">
            <mxRectangle width="30" height="30" as="alternateBounds" />
          </mxGeometry>
        </mxCell>
        <mxCell id="X7ooAVoQ0JDo2GhMxT4V-4" value="userId" style="shape=partialRectangle;connectable=0;fillColor=none;top=0;left=0;bottom=0;right=0;align=left;spacingLeft=6;fontStyle=5;overflow=hidden;whiteSpace=wrap;html=1;" parent="X7ooAVoQ0JDo2GhMxT4V-2" vertex="1">
          <mxGeometry x="30" width="210" height="30" as="geometry">
            <mxRectangle width="210" height="30" as="alternateBounds" />
          </mxGeometry>
        </mxCell>
        <mxCell id="X7ooAVoQ0JDo2GhMxT4V-5" value="" style="shape=tableRow;horizontal=0;startSize=0;swimlaneHead=0;swimlaneBody=0;fillColor=none;collapsible=0;dropTarget=0;points=[[0,0.5],[1,0.5]];portConstraint=eastwest;top=0;left=0;right=0;bottom=0;" parent="X7ooAVoQ0JDo2GhMxT4V-1" vertex="1">
          <mxGeometry y="60" width="240" height="30" as="geometry" />
        </mxCell>
        <mxCell id="X7ooAVoQ0JDo2GhMxT4V-6" value="" style="shape=partialRectangle;connectable=0;fillColor=none;top=0;left=0;bottom=0;right=0;editable=1;overflow=hidden;whiteSpace=wrap;html=1;" parent="X7ooAVoQ0JDo2GhMxT4V-5" vertex="1">
          <mxGeometry width="30" height="30" as="geometry">
            <mxRectangle width="30" height="30" as="alternateBounds" />
          </mxGeometry>
        </mxCell>
        <mxCell id="X7ooAVoQ0JDo2GhMxT4V-7" value="userName" style="shape=partialRectangle;connectable=0;fillColor=none;top=0;left=0;bottom=0;right=0;align=left;spacingLeft=6;overflow=hidden;whiteSpace=wrap;html=1;" parent="X7ooAVoQ0JDo2GhMxT4V-5" vertex="1">
          <mxGeometry x="30" width="210" height="30" as="geometry">
            <mxRectangle width="210" height="30" as="alternateBounds" />
          </mxGeometry>
        </mxCell>
        <mxCell id="X7ooAVoQ0JDo2GhMxT4V-8" value="" style="shape=tableRow;horizontal=0;startSize=0;swimlaneHead=0;swimlaneBody=0;fillColor=none;collapsible=0;dropTarget=0;points=[[0,0.5],[1,0.5]];portConstraint=eastwest;top=0;left=0;right=0;bottom=0;" parent="X7ooAVoQ0JDo2GhMxT4V-1" vertex="1">
          <mxGeometry y="90" width="240" height="30" as="geometry" />
        </mxCell>
        <mxCell id="X7ooAVoQ0JDo2GhMxT4V-9" value="" style="shape=partialRectangle;connectable=0;fillColor=none;top=0;left=0;bottom=0;right=0;editable=1;overflow=hidden;whiteSpace=wrap;html=1;" parent="X7ooAVoQ0JDo2GhMxT4V-8" vertex="1">
          <mxGeometry width="30" height="30" as="geometry">
            <mxRectangle width="30" height="30" as="alternateBounds" />
          </mxGeometry>
        </mxCell>
        <mxCell id="X7ooAVoQ0JDo2GhMxT4V-10" value="userPassword" style="shape=partialRectangle;connectable=0;fillColor=none;top=0;left=0;bottom=0;right=0;align=left;spacingLeft=6;overflow=hidden;whiteSpace=wrap;html=1;" parent="X7ooAVoQ0JDo2GhMxT4V-8" vertex="1">
          <mxGeometry x="30" width="210" height="30" as="geometry">
            <mxRectangle width="210" height="30" as="alternateBounds" />
          </mxGeometry>
        </mxCell>
        <mxCell id="X7ooAVoQ0JDo2GhMxT4V-11" value="" style="shape=tableRow;horizontal=0;startSize=0;swimlaneHead=0;swimlaneBody=0;fillColor=none;collapsible=0;dropTarget=0;points=[[0,0.5],[1,0.5]];portConstraint=eastwest;top=0;left=0;right=0;bottom=0;" parent="X7ooAVoQ0JDo2GhMxT4V-1" vertex="1">
          <mxGeometry y="120" width="240" height="30" as="geometry" />
        </mxCell>
        <mxCell id="X7ooAVoQ0JDo2GhMxT4V-12" value="" style="shape=partialRectangle;connectable=0;fillColor=none;top=0;left=0;bottom=0;right=0;editable=1;overflow=hidden;" parent="X7ooAVoQ0JDo2GhMxT4V-11" vertex="1">
          <mxGeometry width="30" height="30" as="geometry">
            <mxRectangle width="30" height="30" as="alternateBounds" />
          </mxGeometry>
        </mxCell>
        <mxCell id="X7ooAVoQ0JDo2GhMxT4V-13" value="email" style="shape=partialRectangle;connectable=0;fillColor=none;top=0;left=0;bottom=0;right=0;align=left;spacingLeft=6;overflow=hidden;" parent="X7ooAVoQ0JDo2GhMxT4V-11" vertex="1">
          <mxGeometry x="30" width="210" height="30" as="geometry">
            <mxRectangle width="210" height="30" as="alternateBounds" />
          </mxGeometry>
        </mxCell>
        <mxCell id="X7ooAVoQ0JDo2GhMxT4V-14" value="" style="shape=tableRow;horizontal=0;startSize=0;swimlaneHead=0;swimlaneBody=0;fillColor=none;collapsible=0;dropTarget=0;points=[[0,0.5],[1,0.5]];portConstraint=eastwest;top=0;left=0;right=0;bottom=0;" parent="X7ooAVoQ0JDo2GhMxT4V-1" vertex="1">
          <mxGeometry y="150" width="240" height="30" as="geometry" />
        </mxCell>
        <mxCell id="X7ooAVoQ0JDo2GhMxT4V-15" value="" style="shape=partialRectangle;connectable=0;fillColor=none;top=0;left=0;bottom=0;right=0;editable=1;overflow=hidden;" parent="X7ooAVoQ0JDo2GhMxT4V-14" vertex="1">
          <mxGeometry width="30" height="30" as="geometry">
            <mxRectangle width="30" height="30" as="alternateBounds" />
          </mxGeometry>
        </mxCell>
        <mxCell id="X7ooAVoQ0JDo2GhMxT4V-16" value="type" style="shape=partialRectangle;connectable=0;fillColor=none;top=0;left=0;bottom=0;right=0;align=left;spacingLeft=6;overflow=hidden;" parent="X7ooAVoQ0JDo2GhMxT4V-14" vertex="1">
          <mxGeometry x="30" width="210" height="30" as="geometry">
            <mxRectangle width="210" height="30" as="alternateBounds" />
          </mxGeometry>
        </mxCell>
      </root>
    </mxGraphModel>
  </diagram>
  <diagram id="8jTI0cCQs_5lQS8872v5" name="Page-2">
    <mxGraphModel dx="1571" dy="387" grid="1" gridSize="10" guides="1" tooltips="1" connect="1" arrows="1" fold="1" page="1" pageScale="1" pageWidth="850" pageHeight="1100" math="0" shadow="0">
      <root>
        <mxCell id="0" />
        <mxCell id="1" parent="0" />
        <mxCell id="BotZuQCpVfMRXwbFRR4W-1" style="rounded=0;orthogonalLoop=1;jettySize=auto;html=1;" edge="1" parent="1" source="BotZuQCpVfMRXwbFRR4W-5" target="BotZuQCpVfMRXwbFRR4W-6">
          <mxGeometry relative="1" as="geometry" />
        </mxCell>
        <mxCell id="BotZuQCpVfMRXwbFRR4W-2" style="rounded=0;orthogonalLoop=1;jettySize=auto;html=1;entryX=0.692;entryY=0;entryDx=0;entryDy=0;entryPerimeter=0;" edge="1" parent="1" source="BotZuQCpVfMRXwbFRR4W-5" target="BotZuQCpVfMRXwbFRR4W-10">
          <mxGeometry relative="1" as="geometry" />
        </mxCell>
        <mxCell id="BotZuQCpVfMRXwbFRR4W-3" style="rounded=0;orthogonalLoop=1;jettySize=auto;html=1;" edge="1" parent="1" source="BotZuQCpVfMRXwbFRR4W-5" target="BotZuQCpVfMRXwbFRR4W-13">
          <mxGeometry relative="1" as="geometry" />
        </mxCell>
        <mxCell id="BotZuQCpVfMRXwbFRR4W-4" style="rounded=0;orthogonalLoop=1;jettySize=auto;html=1;" edge="1" parent="1" source="BotZuQCpVfMRXwbFRR4W-5" target="BotZuQCpVfMRXwbFRR4W-14">
          <mxGeometry relative="1" as="geometry" />
        </mxCell>
        <mxCell id="BotZuQCpVfMRXwbFRR4W-5" value="car good buy" style="rounded=0;whiteSpace=wrap;html=1;" vertex="1" parent="1">
          <mxGeometry x="-380" y="215" width="120" height="60" as="geometry" />
        </mxCell>
        <mxCell id="BotZuQCpVfMRXwbFRR4W-6" value="cost &amp;lt;= RM1500&amp;nbsp;" style="rounded=0;whiteSpace=wrap;html=1;" vertex="1" parent="1">
          <mxGeometry x="-610" y="340" width="120" height="60" as="geometry" />
        </mxCell>
        <mxCell id="BotZuQCpVfMRXwbFRR4W-7" style="rounded=0;orthogonalLoop=1;jettySize=auto;html=1;" edge="1" parent="1" source="BotZuQCpVfMRXwbFRR4W-10" target="BotZuQCpVfMRXwbFRR4W-17">
          <mxGeometry relative="1" as="geometry" />
        </mxCell>
        <mxCell id="BotZuQCpVfMRXwbFRR4W-8" style="rounded=0;orthogonalLoop=1;jettySize=auto;html=1;" edge="1" parent="1" source="BotZuQCpVfMRXwbFRR4W-10" target="BotZuQCpVfMRXwbFRR4W-16">
          <mxGeometry relative="1" as="geometry" />
        </mxCell>
        <mxCell id="BotZuQCpVfMRXwbFRR4W-9" style="rounded=0;orthogonalLoop=1;jettySize=auto;html=1;" edge="1" parent="1" source="BotZuQCpVfMRXwbFRR4W-10" target="BotZuQCpVfMRXwbFRR4W-15">
          <mxGeometry relative="1" as="geometry" />
        </mxCell>
        <mxCell id="BotZuQCpVfMRXwbFRR4W-10" value="has sound bodywork" style="rounded=0;whiteSpace=wrap;html=1;" vertex="1" parent="1">
          <mxGeometry x="-470" y="340" width="130" height="60" as="geometry" />
        </mxCell>
        <mxCell id="BotZuQCpVfMRXwbFRR4W-11" style="rounded=0;orthogonalLoop=1;jettySize=auto;html=1;" edge="1" parent="1" source="BotZuQCpVfMRXwbFRR4W-13" target="BotZuQCpVfMRXwbFRR4W-18">
          <mxGeometry relative="1" as="geometry" />
        </mxCell>
        <mxCell id="BotZuQCpVfMRXwbFRR4W-12" style="rounded=0;orthogonalLoop=1;jettySize=auto;html=1;" edge="1" parent="1" source="BotZuQCpVfMRXwbFRR4W-13" target="BotZuQCpVfMRXwbFRR4W-19">
          <mxGeometry relative="1" as="geometry" />
        </mxCell>
        <mxCell id="BotZuQCpVfMRXwbFRR4W-13" value="covered &amp;lt; 40000 miles" style="rounded=0;whiteSpace=wrap;html=1;" vertex="1" parent="1">
          <mxGeometry x="-320" y="340" width="130" height="60" as="geometry" />
        </mxCell>
        <mxCell id="BotZuQCpVfMRXwbFRR4W-14" value="previous owners &amp;lt;= 2" style="rounded=0;whiteSpace=wrap;html=1;" vertex="1" parent="1">
          <mxGeometry x="-170" y="340" width="130" height="60" as="geometry" />
        </mxCell>
        <mxCell id="BotZuQCpVfMRXwbFRR4W-15" value="no visible rust&lt;br&gt;" style="rounded=0;whiteSpace=wrap;html=1;" vertex="1" parent="1">
          <mxGeometry x="-720" y="490" width="120" height="60" as="geometry" />
        </mxCell>
        <mxCell id="BotZuQCpVfMRXwbFRR4W-16" value="paintwork is unblemished" style="rounded=0;whiteSpace=wrap;html=1;" vertex="1" parent="1">
          <mxGeometry x="-585" y="490" width="120" height="60" as="geometry" />
        </mxCell>
        <mxCell id="BotZuQCpVfMRXwbFRR4W-17" value="no&lt;br style=&quot;border-color: var(--border-color); box-sizing: border-box; color: rgb(51, 51, 51); font-family: &amp;quot;Open Sans&amp;quot;, Helvetica, sans-serif; font-size: 16px; text-align: start; background-color: rgb(255, 255, 255);&quot;&gt;trace of filler" style="rounded=0;whiteSpace=wrap;html=1;" vertex="1" parent="1">
          <mxGeometry x="-440" y="490" width="120" height="60" as="geometry" />
        </mxCell>
        <mxCell id="BotZuQCpVfMRXwbFRR4W-18" value="&amp;nbsp;speedometer reading &amp;lt; 40000&amp;nbsp;" style="rounded=0;whiteSpace=wrap;html=1;" vertex="1" parent="1">
          <mxGeometry x="-290" y="490" width="120" height="60" as="geometry" />
        </mxCell>
        <mxCell id="BotZuQCpVfMRXwbFRR4W-19" value="no evidence of wear on the driver&#39;s seat." style="rounded=0;whiteSpace=wrap;html=1;" vertex="1" parent="1">
          <mxGeometry x="-155" y="490" width="120" height="60" as="geometry" />
        </mxCell>
        <mxCell id="BotZuQCpVfMRXwbFRR4W-20" value="" style="curved=1;endArrow=none;html=1;rounded=0;endFill=0;" edge="1" parent="1">
          <mxGeometry width="50" height="50" relative="1" as="geometry">
            <mxPoint x="-400" y="290" as="sourcePoint" />
            <mxPoint x="-240" y="290" as="targetPoint" />
            <Array as="points">
              <mxPoint x="-340" y="310" />
              <mxPoint x="-310" y="310" />
            </Array>
          </mxGeometry>
        </mxCell>
        <mxCell id="BotZuQCpVfMRXwbFRR4W-21" value="" style="curved=1;endArrow=none;html=1;rounded=0;endFill=0;" edge="1" parent="1">
          <mxGeometry width="50" height="50" relative="1" as="geometry">
            <mxPoint x="-490" y="420" as="sourcePoint" />
            <mxPoint x="-390" y="430" as="targetPoint" />
            <Array as="points">
              <mxPoint x="-430" y="430" />
            </Array>
          </mxGeometry>
        </mxCell>
        <mxCell id="BotZuQCpVfMRXwbFRR4W-22" value="" style="curved=1;endArrow=none;html=1;rounded=0;endFill=0;" edge="1" parent="1">
          <mxGeometry width="50" height="50" relative="1" as="geometry">
            <mxPoint x="-250" y="420" as="sourcePoint" />
            <mxPoint x="-200" y="420" as="targetPoint" />
            <Array as="points">
              <mxPoint x="-210" y="430" />
            </Array>
          </mxGeometry>
        </mxCell>
        <mxCell id="BotZuQCpVfMRXwbFRR4W-23" style="rounded=0;orthogonalLoop=1;jettySize=auto;html=1;" edge="1" parent="1" source="BotZuQCpVfMRXwbFRR4W-27" target="BotZuQCpVfMRXwbFRR4W-28">
          <mxGeometry relative="1" as="geometry" />
        </mxCell>
        <mxCell id="BotZuQCpVfMRXwbFRR4W-24" style="rounded=0;orthogonalLoop=1;jettySize=auto;html=1;entryX=0.692;entryY=0;entryDx=0;entryDy=0;entryPerimeter=0;" edge="1" parent="1" source="BotZuQCpVfMRXwbFRR4W-27" target="BotZuQCpVfMRXwbFRR4W-32">
          <mxGeometry relative="1" as="geometry" />
        </mxCell>
        <mxCell id="BotZuQCpVfMRXwbFRR4W-25" style="rounded=0;orthogonalLoop=1;jettySize=auto;html=1;" edge="1" parent="1" source="BotZuQCpVfMRXwbFRR4W-27" target="BotZuQCpVfMRXwbFRR4W-35">
          <mxGeometry relative="1" as="geometry" />
        </mxCell>
        <mxCell id="BotZuQCpVfMRXwbFRR4W-26" style="rounded=0;orthogonalLoop=1;jettySize=auto;html=1;" edge="1" parent="1" source="BotZuQCpVfMRXwbFRR4W-27" target="BotZuQCpVfMRXwbFRR4W-36">
          <mxGeometry relative="1" as="geometry" />
        </mxCell>
        <mxCell id="BotZuQCpVfMRXwbFRR4W-46" style="rounded=0;orthogonalLoop=1;jettySize=auto;html=1;" edge="1" parent="1" source="BotZuQCpVfMRXwbFRR4W-27" target="BotZuQCpVfMRXwbFRR4W-45">
          <mxGeometry relative="1" as="geometry" />
        </mxCell>
        <mxCell id="BotZuQCpVfMRXwbFRR4W-27" value="Parent entitled to claim child benefit" style="rounded=0;whiteSpace=wrap;html=1;" vertex="1" parent="1">
          <mxGeometry x="530" y="200" width="120" height="60" as="geometry" />
        </mxCell>
        <mxCell id="BotZuQCpVfMRXwbFRR4W-51" style="rounded=0;orthogonalLoop=1;jettySize=auto;html=1;" edge="1" parent="1" source="BotZuQCpVfMRXwbFRR4W-28" target="BotZuQCpVfMRXwbFRR4W-39">
          <mxGeometry relative="1" as="geometry" />
        </mxCell>
        <mxCell id="BotZuQCpVfMRXwbFRR4W-52" style="rounded=0;orthogonalLoop=1;jettySize=auto;html=1;" edge="1" parent="1" source="BotZuQCpVfMRXwbFRR4W-28" target="BotZuQCpVfMRXwbFRR4W-49">
          <mxGeometry relative="1" as="geometry" />
        </mxCell>
        <mxCell id="BotZuQCpVfMRXwbFRR4W-53" style="rounded=0;orthogonalLoop=1;jettySize=auto;html=1;" edge="1" parent="1" source="BotZuQCpVfMRXwbFRR4W-28" target="BotZuQCpVfMRXwbFRR4W-50">
          <mxGeometry relative="1" as="geometry" />
        </mxCell>
        <mxCell id="BotZuQCpVfMRXwbFRR4W-28" value="age qualification" style="rounded=0;whiteSpace=wrap;html=1;" vertex="1" parent="1">
          <mxGeometry x="300" y="325" width="120" height="60" as="geometry" />
        </mxCell>
        <mxCell id="BotZuQCpVfMRXwbFRR4W-31" style="rounded=0;orthogonalLoop=1;jettySize=auto;html=1;" edge="1" parent="1" source="BotZuQCpVfMRXwbFRR4W-45" target="BotZuQCpVfMRXwbFRR4W-37">
          <mxGeometry relative="1" as="geometry" />
        </mxCell>
        <mxCell id="BotZuQCpVfMRXwbFRR4W-59" style="edgeStyle=orthogonalEdgeStyle;rounded=0;orthogonalLoop=1;jettySize=auto;html=1;" edge="1" parent="1" source="BotZuQCpVfMRXwbFRR4W-32" target="BotZuQCpVfMRXwbFRR4W-55">
          <mxGeometry relative="1" as="geometry" />
        </mxCell>
        <mxCell id="BotZuQCpVfMRXwbFRR4W-32" value="&amp;nbsp;residence qualification&amp;nbsp;" style="rounded=0;whiteSpace=wrap;html=1;" vertex="1" parent="1">
          <mxGeometry x="440" y="325" width="130" height="60" as="geometry" />
        </mxCell>
        <mxCell id="BotZuQCpVfMRXwbFRR4W-61" style="edgeStyle=orthogonalEdgeStyle;rounded=0;orthogonalLoop=1;jettySize=auto;html=1;" edge="1" parent="1" source="BotZuQCpVfMRXwbFRR4W-35" target="BotZuQCpVfMRXwbFRR4W-60">
          <mxGeometry relative="1" as="geometry" />
        </mxCell>
        <mxCell id="BotZuQCpVfMRXwbFRR4W-35" value="employment qualifications" style="rounded=0;whiteSpace=wrap;html=1;" vertex="1" parent="1">
          <mxGeometry x="590" y="325" width="130" height="60" as="geometry" />
        </mxCell>
        <mxCell id="BotZuQCpVfMRXwbFRR4W-36" value="&amp;nbsp;no-one else is claiming benefit for the child" style="rounded=0;whiteSpace=wrap;html=1;" vertex="1" parent="1">
          <mxGeometry x="740" y="325" width="130" height="60" as="geometry" />
        </mxCell>
        <mxCell id="BotZuQCpVfMRXwbFRR4W-37" value="living with the&lt;br style=&quot;box-sizing: border-box; color: rgb(51, 51, 51); font-family: &amp;quot;Open Sans&amp;quot;, Helvetica, sans-serif; font-size: 16px; text-align: start; background-color: rgb(255, 255, 255);&quot;&gt;&lt;span style=&quot;color: rgb(51, 51, 51); font-family: &amp;quot;Open Sans&amp;quot;, Helvetica, sans-serif; font-size: 16px; text-align: start; background-color: rgb(255, 255, 255);&quot;&gt;parent.&lt;/span&gt;" style="rounded=0;whiteSpace=wrap;html=1;" vertex="1" parent="1">
          <mxGeometry x="50" y="448" width="120" height="60" as="geometry" />
        </mxCell>
        <mxCell id="BotZuQCpVfMRXwbFRR4W-39" value="under 16" style="rounded=0;whiteSpace=wrap;html=1;" vertex="1" parent="1">
          <mxGeometry x="210" y="558" width="120" height="60" as="geometry" />
        </mxCell>
        <mxCell id="BotZuQCpVfMRXwbFRR4W-42" value="" style="curved=1;endArrow=none;html=1;rounded=0;endFill=0;" edge="1" parent="1">
          <mxGeometry width="50" height="50" relative="1" as="geometry">
            <mxPoint x="490" y="268" as="sourcePoint" />
            <mxPoint x="670" y="275" as="targetPoint" />
            <Array as="points">
              <mxPoint x="570" y="295" />
              <mxPoint x="600" y="295" />
            </Array>
          </mxGeometry>
        </mxCell>
        <mxCell id="BotZuQCpVfMRXwbFRR4W-48" style="rounded=0;orthogonalLoop=1;jettySize=auto;html=1;" edge="1" parent="1" source="BotZuQCpVfMRXwbFRR4W-45" target="BotZuQCpVfMRXwbFRR4W-47">
          <mxGeometry relative="1" as="geometry" />
        </mxCell>
        <mxCell id="BotZuQCpVfMRXwbFRR4W-45" value="&amp;nbsp;child is dependent" style="rounded=0;whiteSpace=wrap;html=1;" vertex="1" parent="1">
          <mxGeometry x="160" y="325" width="120" height="60" as="geometry" />
        </mxCell>
        <mxCell id="BotZuQCpVfMRXwbFRR4W-47" value="&lt;span style=&quot;color: rgb(0, 0, 0); font-family: Helvetica; font-size: 12px; font-style: normal; font-variant-ligatures: normal; font-variant-caps: normal; font-weight: 400; letter-spacing: normal; orphans: 2; text-align: center; text-indent: 0px; text-transform: none; widows: 2; word-spacing: 0px; -webkit-text-stroke-width: 0px; background-color: rgb(251, 251, 251); text-decoration-thickness: initial; text-decoration-style: initial; text-decoration-color: initial; float: none; display: inline !important;&quot;&gt;receiving regular maintenance payments from parent&lt;/span&gt;" style="rounded=0;whiteSpace=wrap;html=1;" vertex="1" parent="1">
          <mxGeometry x="180" y="448" width="120" height="60" as="geometry" />
        </mxCell>
        <mxCell id="BotZuQCpVfMRXwbFRR4W-49" value="&lt;span style=&quot;color: rgb(0, 0, 0); font-family: Helvetica; font-size: 12px; font-style: normal; font-variant-ligatures: normal; font-variant-caps: normal; font-weight: 400; letter-spacing: normal; orphans: 2; text-align: center; text-indent: 0px; text-transform: none; widows: 2; word-spacing: 0px; -webkit-text-stroke-width: 0px; background-color: rgb(251, 251, 251); text-decoration-thickness: initial; text-decoration-style: initial; text-decoration-color: initial; float: none; display: inline !important;&quot;&gt;under 19&amp;nbsp;&lt;/span&gt;" style="rounded=0;whiteSpace=wrap;html=1;" vertex="1" parent="1">
          <mxGeometry x="380" y="558" width="119" height="60" as="geometry" />
        </mxCell>
        <mxCell id="BotZuQCpVfMRXwbFRR4W-50" value="&lt;span style=&quot;border-color: var(--border-color); color: rgb(0, 0, 0); font-family: Helvetica; font-size: 12px; font-style: normal; font-variant-ligatures: normal; font-variant-caps: normal; font-weight: 400; letter-spacing: normal; orphans: 2; text-align: center; text-indent: 0px; text-transform: none; widows: 2; word-spacing: 0px; -webkit-text-stroke-width: 0px; text-decoration-thickness: initial; text-decoration-style: initial; text-decoration-color: initial; background-color: rgb(251, 251, 251); float: none; display: inline !important;&quot;&gt;in full-time education&lt;/span&gt;" style="rounded=0;whiteSpace=wrap;html=1;" vertex="1" parent="1">
          <mxGeometry x="510" y="558" width="120" height="60" as="geometry" />
        </mxCell>
        <mxCell id="BotZuQCpVfMRXwbFRR4W-54" value="" style="curved=1;endArrow=none;html=1;rounded=0;endFill=0;" edge="1" parent="1">
          <mxGeometry width="50" height="50" relative="1" as="geometry">
            <mxPoint x="390" y="445" as="sourcePoint" />
            <mxPoint x="440" y="445" as="targetPoint" />
            <Array as="points">
              <mxPoint x="430" y="455" />
            </Array>
          </mxGeometry>
        </mxCell>
        <mxCell id="BotZuQCpVfMRXwbFRR4W-55" value="&lt;span style=&quot;border-color: var(--border-color); color: rgb(0, 0, 0); font-family: Helvetica; font-size: 12px; font-style: normal; font-variant-ligatures: normal; font-variant-caps: normal; font-weight: 400; letter-spacing: normal; orphans: 2; text-align: center; text-indent: 0px; text-transform: none; widows: 2; word-spacing: 0px; -webkit-text-stroke-width: 0px; text-decoration-thickness: initial; text-decoration-style: initial; text-decoration-color: initial; background-color: rgb(251, 251, 251); float: none; display: inline !important;&quot;&gt;parent and child is MY resident&amp;nbsp;&lt;/span&gt;for 6 months from the last 12 months" style="rounded=0;whiteSpace=wrap;html=1;" vertex="1" parent="1">
          <mxGeometry x="499" y="448" width="120" height="60" as="geometry" />
        </mxCell>
        <mxCell id="BotZuQCpVfMRXwbFRR4W-60" value="Child is not working" style="rounded=0;whiteSpace=wrap;html=1;" vertex="1" parent="1">
          <mxGeometry x="649" y="448" width="120" height="60" as="geometry" />
        </mxCell>
        <mxCell id="BotZuQCpVfMRXwbFRR4W-81" style="rounded=0;orthogonalLoop=1;jettySize=auto;html=1;" edge="1" parent="1" source="BotZuQCpVfMRXwbFRR4W-62" target="BotZuQCpVfMRXwbFRR4W-63">
          <mxGeometry relative="1" as="geometry" />
        </mxCell>
        <mxCell id="BotZuQCpVfMRXwbFRR4W-82" style="rounded=0;orthogonalLoop=1;jettySize=auto;html=1;" edge="1" parent="1" source="BotZuQCpVfMRXwbFRR4W-62" target="BotZuQCpVfMRXwbFRR4W-64">
          <mxGeometry relative="1" as="geometry" />
        </mxCell>
        <mxCell id="BotZuQCpVfMRXwbFRR4W-62" value="worth installing heat pump" style="rounded=0;whiteSpace=wrap;html=1;" vertex="1" parent="1">
          <mxGeometry x="1310" y="180" width="120" height="60" as="geometry" />
        </mxCell>
        <mxCell id="BotZuQCpVfMRXwbFRR4W-83" style="rounded=0;orthogonalLoop=1;jettySize=auto;html=1;" edge="1" parent="1" source="BotZuQCpVfMRXwbFRR4W-63" target="BotZuQCpVfMRXwbFRR4W-66">
          <mxGeometry relative="1" as="geometry" />
        </mxCell>
        <mxCell id="BotZuQCpVfMRXwbFRR4W-84" style="rounded=0;orthogonalLoop=1;jettySize=auto;html=1;" edge="1" parent="1" source="BotZuQCpVfMRXwbFRR4W-63" target="BotZuQCpVfMRXwbFRR4W-67">
          <mxGeometry relative="1" as="geometry" />
        </mxCell>
        <mxCell id="BotZuQCpVfMRXwbFRR4W-85" style="rounded=0;orthogonalLoop=1;jettySize=auto;html=1;" edge="1" parent="1" source="BotZuQCpVfMRXwbFRR4W-63" target="BotZuQCpVfMRXwbFRR4W-65">
          <mxGeometry relative="1" as="geometry" />
        </mxCell>
        <mxCell id="BotZuQCpVfMRXwbFRR4W-63" value="technically feasible&amp;nbsp;" style="rounded=0;whiteSpace=wrap;html=1;" vertex="1" parent="1">
          <mxGeometry x="1215" y="290" width="120" height="60" as="geometry" />
        </mxCell>
        <mxCell id="BotZuQCpVfMRXwbFRR4W-86" style="rounded=0;orthogonalLoop=1;jettySize=auto;html=1;" edge="1" parent="1" source="BotZuQCpVfMRXwbFRR4W-64" target="BotZuQCpVfMRXwbFRR4W-72">
          <mxGeometry relative="1" as="geometry" />
        </mxCell>
        <mxCell id="BotZuQCpVfMRXwbFRR4W-87" style="rounded=0;orthogonalLoop=1;jettySize=auto;html=1;" edge="1" parent="1" source="BotZuQCpVfMRXwbFRR4W-64" target="BotZuQCpVfMRXwbFRR4W-73">
          <mxGeometry relative="1" as="geometry" />
        </mxCell>
        <mxCell id="BotZuQCpVfMRXwbFRR4W-64" value="&lt;span style=&quot;color: rgb(0, 0, 0); font-family: Helvetica; font-size: 12px; font-style: normal; font-variant-ligatures: normal; font-variant-caps: normal; font-weight: 400; letter-spacing: normal; orphans: 2; text-align: center; text-indent: 0px; text-transform: none; widows: 2; word-spacing: 0px; -webkit-text-stroke-width: 0px; background-color: rgb(251, 251, 251); text-decoration-thickness: initial; text-decoration-style: initial; text-decoration-color: initial; float: none; display: inline !important;&quot;&gt;economically viable&lt;/span&gt;" style="rounded=0;whiteSpace=wrap;html=1;" vertex="1" parent="1">
          <mxGeometry x="1390" y="290" width="120" height="60" as="geometry" />
        </mxCell>
        <mxCell id="BotZuQCpVfMRXwbFRR4W-65" value="temperature of the heat sink &amp;lt; 120°&amp;nbsp;" style="rounded=0;whiteSpace=wrap;html=1;" vertex="1" parent="1">
          <mxGeometry x="1220" y="390" width="120" height="60" as="geometry" />
        </mxCell>
        <mxCell id="BotZuQCpVfMRXwbFRR4W-66" value="0 &amp;lt; temperature between condenser and evaporator &amp;lt; 60°&amp;nbsp;" style="rounded=0;whiteSpace=wrap;html=1;" vertex="1" parent="1">
          <mxGeometry x="960" y="390" width="120" height="60" as="geometry" />
        </mxCell>
        <mxCell id="BotZuQCpVfMRXwbFRR4W-88" style="rounded=0;orthogonalLoop=1;jettySize=auto;html=1;" edge="1" parent="1" source="BotZuQCpVfMRXwbFRR4W-67" target="BotZuQCpVfMRXwbFRR4W-68">
          <mxGeometry relative="1" as="geometry" />
        </mxCell>
        <mxCell id="BotZuQCpVfMRXwbFRR4W-89" style="rounded=0;orthogonalLoop=1;jettySize=auto;html=1;" edge="1" parent="1" source="BotZuQCpVfMRXwbFRR4W-67" target="BotZuQCpVfMRXwbFRR4W-69">
          <mxGeometry relative="1" as="geometry" />
        </mxCell>
        <mxCell id="BotZuQCpVfMRXwbFRR4W-67" value="no significant adverse factors present.&amp;nbsp;" style="rounded=0;whiteSpace=wrap;html=1;" vertex="1" parent="1">
          <mxGeometry x="1090" y="390" width="120" height="60" as="geometry" />
        </mxCell>
        <mxCell id="BotZuQCpVfMRXwbFRR4W-68" value="excessive dust&lt;br style=&quot;border-color: var(--border-color); box-sizing: border-box; color: rgb(51, 51, 51); font-family: &amp;quot;Open Sans&amp;quot;, Helvetica, sans-serif; font-size: 16px; text-align: start; background-color: rgb(255, 255, 255);&quot;&gt;in the atmosphere" style="rounded=0;whiteSpace=wrap;html=1;" vertex="1" parent="1">
          <mxGeometry x="1010" y="498" width="120" height="60" as="geometry" />
        </mxCell>
        <mxCell id="BotZuQCpVfMRXwbFRR4W-69" value="&lt;span style=&quot;color: rgb(0, 0, 0); font-family: Helvetica; font-size: 12px; font-style: normal; font-variant-ligatures: normal; font-variant-caps: normal; font-weight: 400; letter-spacing: normal; orphans: 2; text-align: center; text-indent: 0px; text-transform: none; widows: 2; word-spacing: 0px; -webkit-text-stroke-width: 0px; background-color: rgb(251, 251, 251); text-decoration-thickness: initial; text-decoration-style: initial; text-decoration-color: initial; float: none; display: inline !important;&quot;&gt;corrosive vapours such as sulphuric acid.&lt;/span&gt;" style="rounded=0;whiteSpace=wrap;html=1;" vertex="1" parent="1">
          <mxGeometry x="1155" y="498" width="120" height="60" as="geometry" />
        </mxCell>
        <mxCell id="BotZuQCpVfMRXwbFRR4W-71" value="" style="rounded=0;whiteSpace=wrap;html=1;" vertex="1" parent="1">
          <mxGeometry x="1410" y="390" width="120" height="60" as="geometry" />
        </mxCell>
        <mxCell id="BotZuQCpVfMRXwbFRR4W-72" value="heat pump be in operation &amp;gt;= 4000 hrs/ year" style="rounded=0;whiteSpace=wrap;html=1;" vertex="1" parent="1">
          <mxGeometry x="1410" y="390" width="120" height="60" as="geometry" />
        </mxCell>
        <mxCell id="BotZuQCpVfMRXwbFRR4W-90" style="rounded=0;orthogonalLoop=1;jettySize=auto;html=1;" edge="1" parent="1" source="BotZuQCpVfMRXwbFRR4W-73" target="BotZuQCpVfMRXwbFRR4W-75">
          <mxGeometry relative="1" as="geometry" />
        </mxCell>
        <mxCell id="BotZuQCpVfMRXwbFRR4W-91" style="rounded=0;orthogonalLoop=1;jettySize=auto;html=1;" edge="1" parent="1" source="BotZuQCpVfMRXwbFRR4W-73" target="BotZuQCpVfMRXwbFRR4W-76">
          <mxGeometry relative="1" as="geometry" />
        </mxCell>
        <mxCell id="BotZuQCpVfMRXwbFRR4W-73" value="heat is reusable" style="rounded=0;whiteSpace=wrap;html=1;" vertex="1" parent="1">
          <mxGeometry x="1550" y="390" width="120" height="60" as="geometry" />
        </mxCell>
        <mxCell id="BotZuQCpVfMRXwbFRR4W-92" style="rounded=0;orthogonalLoop=1;jettySize=auto;html=1;" edge="1" parent="1" source="BotZuQCpVfMRXwbFRR4W-75" target="BotZuQCpVfMRXwbFRR4W-78">
          <mxGeometry relative="1" as="geometry" />
        </mxCell>
        <mxCell id="BotZuQCpVfMRXwbFRR4W-93" style="rounded=0;orthogonalLoop=1;jettySize=auto;html=1;" edge="1" parent="1" source="BotZuQCpVfMRXwbFRR4W-75" target="BotZuQCpVfMRXwbFRR4W-77">
          <mxGeometry relative="1" as="geometry" />
        </mxCell>
        <mxCell id="BotZuQCpVfMRXwbFRR4W-75" value="for another industrial process" style="rounded=0;whiteSpace=wrap;html=1;" vertex="1" parent="1">
          <mxGeometry x="1480" y="490" width="120" height="60" as="geometry" />
        </mxCell>
        <mxCell id="BotZuQCpVfMRXwbFRR4W-94" style="rounded=0;orthogonalLoop=1;jettySize=auto;html=1;" edge="1" parent="1" source="BotZuQCpVfMRXwbFRR4W-76" target="BotZuQCpVfMRXwbFRR4W-79">
          <mxGeometry relative="1" as="geometry" />
        </mxCell>
        <mxCell id="BotZuQCpVfMRXwbFRR4W-95" style="rounded=0;orthogonalLoop=1;jettySize=auto;html=1;" edge="1" parent="1" source="BotZuQCpVfMRXwbFRR4W-76" target="BotZuQCpVfMRXwbFRR4W-80">
          <mxGeometry relative="1" as="geometry" />
        </mxCell>
        <mxCell id="BotZuQCpVfMRXwbFRR4W-76" value="for in space heating" style="rounded=0;whiteSpace=wrap;html=1;" vertex="1" parent="1">
          <mxGeometry x="1620" y="490" width="120" height="60" as="geometry" />
        </mxCell>
        <mxCell id="BotZuQCpVfMRXwbFRR4W-77" value="within 30m of heat generating process" style="rounded=0;whiteSpace=wrap;html=1;" vertex="1" parent="1">
          <mxGeometry x="1360" y="590" width="120" height="60" as="geometry" />
        </mxCell>
        <mxCell id="BotZuQCpVfMRXwbFRR4W-78" value="run at the same time" style="rounded=0;whiteSpace=wrap;html=1;" vertex="1" parent="1">
          <mxGeometry x="1490" y="590" width="130" height="60" as="geometry" />
        </mxCell>
        <mxCell id="BotZuQCpVfMRXwbFRR4W-79" value="target space is &amp;lt; 100m away" style="rounded=0;whiteSpace=wrap;html=1;" vertex="1" parent="1">
          <mxGeometry x="1630" y="590" width="120" height="60" as="geometry" />
        </mxCell>
        <mxCell id="BotZuQCpVfMRXwbFRR4W-80" value="open at the same time" style="rounded=0;whiteSpace=wrap;html=1;" vertex="1" parent="1">
          <mxGeometry x="1760" y="590" width="130" height="60" as="geometry" />
        </mxCell>
        <mxCell id="BotZuQCpVfMRXwbFRR4W-96" value="" style="curved=1;endArrow=none;html=1;rounded=0;endFill=0;" edge="1" parent="1">
          <mxGeometry width="50" height="50" relative="1" as="geometry">
            <mxPoint x="1340" y="255" as="sourcePoint" />
            <mxPoint x="1400" y="255" as="targetPoint" />
            <Array as="points">
              <mxPoint x="1380" y="265" />
            </Array>
          </mxGeometry>
        </mxCell>
        <mxCell id="BotZuQCpVfMRXwbFRR4W-97" value="" style="curved=1;endArrow=none;html=1;rounded=0;endFill=0;" edge="1" parent="1">
          <mxGeometry width="50" height="50" relative="1" as="geometry">
            <mxPoint x="1190" y="355" as="sourcePoint" />
            <mxPoint x="1280" y="360" as="targetPoint" />
            <Array as="points">
              <mxPoint x="1230" y="365" />
            </Array>
          </mxGeometry>
        </mxCell>
        <mxCell id="BotZuQCpVfMRXwbFRR4W-98" value="" style="curved=1;endArrow=none;html=1;rounded=0;endFill=0;" edge="1" parent="1">
          <mxGeometry width="50" height="50" relative="1" as="geometry">
            <mxPoint x="1120" y="465" as="sourcePoint" />
            <mxPoint x="1180" y="465" as="targetPoint" />
            <Array as="points">
              <mxPoint x="1160" y="475" />
            </Array>
          </mxGeometry>
        </mxCell>
        <mxCell id="BotZuQCpVfMRXwbFRR4W-99" value="" style="curved=1;endArrow=none;html=1;rounded=0;endFill=0;" edge="1" parent="1">
          <mxGeometry width="50" height="50" relative="1" as="geometry">
            <mxPoint x="1460" y="365" as="sourcePoint" />
            <mxPoint x="1520" y="365" as="targetPoint" />
            <Array as="points">
              <mxPoint x="1500" y="375" />
            </Array>
          </mxGeometry>
        </mxCell>
        <mxCell id="BotZuQCpVfMRXwbFRR4W-100" value="" style="curved=1;endArrow=none;html=1;rounded=0;endFill=0;" edge="1" parent="1">
          <mxGeometry width="50" height="50" relative="1" as="geometry">
            <mxPoint x="1490" y="565" as="sourcePoint" />
            <mxPoint x="1550" y="565" as="targetPoint" />
            <Array as="points">
              <mxPoint x="1530" y="575" />
            </Array>
          </mxGeometry>
        </mxCell>
        <mxCell id="BotZuQCpVfMRXwbFRR4W-101" value="" style="curved=1;endArrow=none;html=1;rounded=0;endFill=0;" edge="1" parent="1">
          <mxGeometry width="50" height="50" relative="1" as="geometry">
            <mxPoint x="1690" y="565" as="sourcePoint" />
            <mxPoint x="1750" y="565" as="targetPoint" />
            <Array as="points">
              <mxPoint x="1730" y="575" />
            </Array>
          </mxGeometry>
        </mxCell>
      </root>
    </mxGraphModel>
  </diagram>
</mxfile>
